<svg xmlns="http://www.w3.org/2000/svg" width="82" height="81.999" viewBox="0 0 82 81.999">
  <g id="Grupo_1189051" data-name="Grupo 1189051" transform="translate(-2 -2.001)">
    <path id="Trazado_1012955" data-name="Trazado 1012955" d="M83.17,36.507l-5.786-2.468a35.383,35.383,0,0,0-3.73-9.016L76,19.187a1.366,1.366,0,0,0-.3-1.476l-7.406-7.4a1.36,1.36,0,0,0-1.476-.3l-5.833,2.344a35.306,35.306,0,0,0-9.017-3.731l-2.47-5.786A1.368,1.368,0,0,0,48.237,2H37.763a1.368,1.368,0,0,0-1.257.83L34.037,8.617a35.375,35.375,0,0,0-9.017,3.731L19.186,10a1.368,1.368,0,0,0-1.476.3l-7.406,7.4a1.368,1.368,0,0,0-.3,1.476l2.345,5.834a35.22,35.22,0,0,0-3.731,9.016L2.83,36.507A1.368,1.368,0,0,0,2,37.764V48.237a1.367,1.367,0,0,0,.83,1.257l5.786,2.468a35.383,35.383,0,0,0,3.73,9.016L10,66.814a1.366,1.366,0,0,0,.3,1.476l7.406,7.4a1.369,1.369,0,0,0,1.476.3l5.833-2.344a35.306,35.306,0,0,0,9.017,3.731l2.47,5.786a1.368,1.368,0,0,0,1.257.83H48.237a1.368,1.368,0,0,0,1.257-.83l2.468-5.786a35.375,35.375,0,0,0,9.017-3.731L66.814,76a1.361,1.361,0,0,0,1.476-.3l7.406-7.4a1.368,1.368,0,0,0,.3-1.476l-2.345-5.834a35.22,35.22,0,0,0,3.731-9.016l5.786-2.47A1.368,1.368,0,0,0,84,48.237V37.764A1.367,1.367,0,0,0,83.17,36.507Zm-1.9,10.827-5.494,2.345a1.372,1.372,0,0,0-.882.973,32.57,32.57,0,0,1-3.928,9.491,1.37,1.37,0,0,0-.1,1.225l2.262,5.627-6.13,6.128-5.565-2.234a1.361,1.361,0,0,0-1.285.078,32.591,32.591,0,0,1-9.49,3.928,1.37,1.37,0,0,0-.951.825l-2.366,5.549h-8.67l-2.347-5.5a1.366,1.366,0,0,0-.972-.873,32.575,32.575,0,0,1-9.49-3.928,1.366,1.366,0,0,0-1.225-.1l-5.625,2.26L12.879,67l2.237-5.565a1.371,1.371,0,0,0-.078-1.286,32.547,32.547,0,0,1-3.928-9.49,1.369,1.369,0,0,0-.827-.953L4.736,47.336V38.669l5.494-2.345a1.372,1.372,0,0,0,.882-.973,32.57,32.57,0,0,1,3.928-9.491,1.37,1.37,0,0,0,.1-1.225L12.88,19.008l6.13-6.128,5.565,2.235a1.361,1.361,0,0,0,1.285-.078,32.591,32.591,0,0,1,9.49-3.928,1.37,1.37,0,0,0,.951-.825l2.366-5.549h8.67l2.347,5.5a1.366,1.366,0,0,0,.972.873,32.575,32.575,0,0,1,9.49,3.928,1.366,1.366,0,0,0,1.225.1l5.625-2.26,6.13,6.128-2.237,5.565a1.371,1.371,0,0,0,.078,1.286,32.547,32.547,0,0,1,3.928,9.49,1.364,1.364,0,0,0,.857.965l5.517,2.353Z" fill="#663b2d"/>
    <path id="Trazado_1012956" data-name="Trazado 1012956" d="M39.333,12A27.333,27.333,0,1,0,66.667,39.333,27.364,27.364,0,0,0,39.333,12Zm0,51.933a24.6,24.6,0,1,1,24.6-24.6A24.628,24.628,0,0,1,39.333,63.933Z" transform="translate(3.667 3.666)" fill="#663b2d"/>
    <path id="Trazado_1012957" data-name="Trazado 1012957" d="M35.641,17A13.585,13.585,0,0,0,22.07,30.57c0,6.936,11.144,24.78,12.415,26.793a1.368,1.368,0,0,0,2.312,0C38.068,55.35,49.212,37.505,49.212,30.57A13.585,13.585,0,0,0,35.641,17Zm0,37.037C31.8,47.728,24.8,35.249,24.8,30.571a10.838,10.838,0,0,1,21.675,0C46.479,35.249,39.477,47.729,35.641,54.037Z" transform="translate(7.359 5.5)" fill="#663b2d"/>
    <path id="Trazado_1012958" data-name="Trazado 1012958" d="M33.735,22.2A6.468,6.468,0,1,0,40.2,28.664,6.475,6.475,0,0,0,33.735,22.2Zm0,10.2a3.735,3.735,0,1,1,3.735-3.735A3.739,3.739,0,0,1,33.735,32.4Z" transform="translate(9.265 7.405)" fill="#663b2d"/>
  </g>
</svg>
