<svg xmlns="http://www.w3.org/2000/svg" xmlns:xlink="http://www.w3.org/1999/xlink" width="292" height="484" viewBox="0 0 292 484">
  <defs>
    <clipPath id="clip-path">
      <rect id="Rectángulo_462008" data-name="Rectángulo 462008" width="61.293" height="61.293" fill="none"/>
    </clipPath>
  </defs>
  <g id="Grupo_1189683" data-name="Grupo 1189683" transform="translate(-185 -10493)">
    <path id="Trazado_1012081" data-name="Trazado 1012081" d="M0,0H292V484H0Z" transform="translate(185 10493)" fill="none"/>
    <g id="Grupo_1189682" data-name="Grupo 1189682" transform="translate(8988.259 6639.828)">
      <path id="Trazado_1015268" data-name="Trazado 1015268" d="M191.184,529.617c-14.357,11.087-9.193,5.687-53.7,29.77-17.656,9.554-26.856,15.319-36.595,24.521A99.25,99.25,0,0,0,83.7,604.8a80.282,80.282,0,0,0-10.752,31.314c-2.928,23.717,5.081,48.082,19.317,66.966s34.288,32.574,55.837,41.574a179.591,179.591,0,0,0,81.374,13.189,131.807,131.807,0,0,0,35.576-7.6,147.832,147.832,0,0,0,31.326-15.387c11.874-8.013,34.652-28.792,40.124-59.224,2.389-13.283,1.062-26.079-.577-41.893a185.28,185.28,0,0,0-3.694-22.438c-1.16-4.995-1.915-7.246-3.783-13.769-3.209-11.205-5.833-21.229-8.5-32.628-4.874-20.854-4.6-24.908-11.009-37.062-6.926-13.125-13.9-25.928-28.934-34.214-4.418-2.435-22.452-11.631-41.91-5.218-8.211,2.706-13.576,7.119-20.1,12.542-13.157,10.944-16.683,20.839-26.817,28.664" transform="translate(-8862.867 3557.568)" fill="#e1e5ff"/>
      <path id="Trazado_1015269" data-name="Trazado 1015269" d="M127.78.976c-12.55-2.957-23.818,1.591-27.585,3.6-6.778,3.615-12.873,9.079-20.464,10.256-4.19.65-8.451-.088-12.66-.6-9.037-1.1-18.539-1.112-26.842,2.624A43.209,43.209,0,0,0,26.712,27C22.227,31.789,18.386,37.371,16.7,43.71a43.445,43.445,0,0,0,2.151,28.128A42.412,42.412,0,0,0,27.493,84c4.707,4.821,9.15,7.324,14.532,10.3a78.3,78.3,0,0,0,19.338,7.868,61.746,61.746,0,0,0,21.482,2.259c11.892-1.072,20.237-6.141,26.658-10.141,17.681-11.015,26.347-25.693,31.941-35.17,5.618-9.518,11.041-19.985,10.116-31a30.477,30.477,0,0,0-8.171-18.731A30.518,30.518,0,0,0,127.78.976" transform="translate(-8812.709 3882.826)" fill="#e1e5ff"/>
      <path id="Trazado_1015270" data-name="Trazado 1015270" d="M726.148,2617.5a1.785,1.785,0,0,0-.073.373,2.263,2.263,0,0,0,1.416,2.26c3.895,1.708,13.023,5.512,19.738,6.739a17.985,17.985,0,0,0,4.665.346c.032,0,.066-.006.1-.012a.438.438,0,0,0,.057-.008,2.724,2.724,0,0,0,.746-.213c.027-.01.055-.023.083-.036l.078-.04a.417.417,0,0,0,.078-.04c.076-.044.149-.091.22-.138l.129-.1a.093.093,0,0,1,.02-.018c.039-.033.078-.066.115-.1a2.488,2.488,0,0,0,.226-.237.014.014,0,0,0,.009-.009c.026-.031.049-.062.073-.093a.489.489,0,0,0,.037-.051c.024-.034.049-.071.073-.107,0-.007.006-.013.012-.023.025-.037.044-.074.066-.115a1.024,1.024,0,0,0,.062-.124l.02-.041a.163.163,0,0,0,.015-.036.485.485,0,0,0,.029-.064l.033-.092c.015-.034.023-.066.035-.1s.019-.064.028-.1a2.583,2.583,0,0,0,.071-.473c0-.06,0-.122,0-.183s-.007-.119-.013-.18a.737.737,0,0,0-.01-.08,2.422,2.422,0,0,0-.125-.509,1.364,1.364,0,0,0-.077-.191,2.077,2.077,0,0,0-.117-.23,13.236,13.236,0,0,0-3.4-3.713c-.391-.311-.823-.629-1.292-.948-.152-.1-.3-.209-.465-.31-.289-.191-.594-.383-.917-.576-.157-.1-.32-.193-.486-.289-.308-.178-.628-.357-.964-.537-.167-.091-.338-.18-.511-.273-.323-.168-.661-.337-1.008-.505l-.531-.255a.747.747,0,0,0-.075-.033c-.239-.112-.483-.226-.734-.338l-.231-.059.283-3.615-14.954-3.8-.866,3.4Z" transform="translate(-9437.634 1633.952)" fill="#fbbb37"/>
      <path id="Trazado_1015271" data-name="Trazado 1015271" d="M754.575,2653.951a2.432,2.432,0,1,0-2.892,1.545,2.324,2.324,0,0,0,2.892-1.545" transform="translate(-9458.519 1596.226)" fill="#fdfdfd"/>
      <path id="Trazado_1015272" data-name="Trazado 1015272" d="M724.439,2688.547a2.226,2.226,0,0,0,1.344,2.636c3.893,1.707,13.021,5.511,19.737,6.736a17.862,17.862,0,0,0,4.664.346,2.558,2.558,0,0,0,2.407-2.309,2.628,2.628,0,0,1-2.2,1.5,17.862,17.862,0,0,1-4.664-.346c-6.716-1.225-15.844-5.029-19.737-6.736a2.271,2.271,0,0,1-1.418-2.261Z" transform="translate(-9436.13 1563.708)"/>
      <path id="Trazado_1015273" data-name="Trazado 1015273" d="M901.309,2710.871a17.851,17.851,0,0,0,4.664.346,2.5,2.5,0,0,0,2.07-3.74,13.238,13.238,0,0,0-3.395-3.714c-1.036.733-3.234,2.789-3.339,7.107" transform="translate(-9591.714 1549.949)" fill="#fdfdfd"/>
      <path id="Trazado_1015274" data-name="Trazado 1015274" d="M903.654,2694.618a.323.323,0,0,0,.14.074.292.292,0,0,0,.252-.044l1.3-1c-.15-.1-.3-.206-.462-.309l-1.226.941a.212.212,0,0,0,0,.333" transform="translate(-9593.707 1559.111)" fill="#fdfdfd"/>
      <path id="Trazado_1015275" data-name="Trazado 1015275" d="M892.867,2687.391a.322.322,0,0,0,.139.075.3.3,0,0,0,.252-.044l1.223-.939c-.159-.1-.322-.193-.488-.288l-1.124.863a.211.211,0,0,0,0,.333" transform="translate(-9584.221 1565.396)" fill="#fdfdfd"/>
      <path id="Trazado_1015276" data-name="Trazado 1015276" d="M882.08,2680.553a.323.323,0,0,0,.138.075.3.3,0,0,0,.253-.044l1.073-.824c-.166-.091-.337-.179-.511-.271l-.952.73a.211.211,0,0,0,0,.333" transform="translate(-9574.737 1571.291)" fill="#fdfdfd"/>
      <path id="Trazado_1015277" data-name="Trazado 1015277" d="M871.291,2674.075a.309.309,0,0,0,.14.075.293.293,0,0,0,.252-.044l.858-.658q-.262-.128-.532-.254l-.715.548a.212.212,0,0,0,0,.333" transform="translate(-9565.252 1576.828)" fill="#fdfdfd"/>
      <path id="Trazado_1015278" data-name="Trazado 1015278" d="M867.333,2652.064a.107.107,0,0,0,0,.061,20,20,0,0,1-.024,2.215,7.258,7.258,0,0,0,.041,1.074.891.891,0,0,0,.532.805c.664.24.907-.6.987-1.027a3.341,3.341,0,0,0-.118-1.666,3.525,3.525,0,0,0-.643-1.159l-.022-.026c-.037-.043-.076-.087-.116-.129-.024-.025-.115-.1-.11-.14.009-.086.332-.113.4-.127.157-.032.314-.066.469-.1a7.648,7.648,0,0,0,.934-.276,4.556,4.556,0,0,0,.851-.409,1.726,1.726,0,0,0,.65-.618.6.6,0,0,0-.121-.744.964.964,0,0,0-.854-.169,3.211,3.211,0,0,0-.9.417,5.388,5.388,0,0,0-.73.538,6.664,6.664,0,0,0-1.169,1.372c-.007.009-.012.02-.019.029a.3.3,0,0,0-.022.023.115.115,0,0,0-.021.059m.684-.4a5.965,5.965,0,0,1,.86-.91,4.8,4.8,0,0,1,.786-.544,1.5,1.5,0,0,1,.928-.291.322.322,0,0,1,.257.5,1.631,1.631,0,0,1-.626.54,5.823,5.823,0,0,1-1.637.6c-.181.042-.38.066-.568.111m-.325.722a3.539,3.539,0,0,1,.762,1.3,3,3,0,0,1,.071,1.5,1.533,1.533,0,0,1-.248.647c-.2.24-.465.03-.54-.2a2.884,2.884,0,0,1-.086-.832c-.007-.307,0-.613.016-.92.021-.5.049-.995.025-1.494" transform="translate(-9561.82 1597.576)"/>
      <path id="Trazado_1015279" data-name="Trazado 1015279" d="M1225.5,2680.864a1.791,1.791,0,0,0,.069.374,2.264,2.264,0,0,0,2.149,1.581c4.25.155,14.138.333,20.833-1a18.006,18.006,0,0,0,4.465-1.395c.028-.015.059-.03.087-.048a.426.426,0,0,0,.05-.029,2.721,2.721,0,0,0,.615-.473c.022-.02.043-.042.064-.064s.039-.044.058-.066a.4.4,0,0,0,.057-.066c.054-.068.105-.139.153-.209.027-.046.057-.091.084-.137a.091.091,0,0,1,.012-.024c.024-.045.048-.09.069-.137a2.462,2.462,0,0,0,.123-.3.014.014,0,0,0,0-.011c.013-.038.023-.075.033-.113a.5.5,0,0,0,.016-.061c.01-.04.019-.083.029-.126,0-.009,0-.014,0-.025.009-.043.013-.085.019-.131a1.011,1.011,0,0,0,.012-.138c0-.014,0-.028,0-.045a.152.152,0,0,0,0-.039.487.487,0,0,0,0-.07c0-.033,0-.064,0-.1s0-.07,0-.106-.006-.066-.01-.1a2.587,2.587,0,0,0-.108-.467c-.022-.056-.042-.115-.067-.17s-.05-.108-.078-.163c-.012-.023-.024-.047-.039-.07a2.41,2.41,0,0,0-.3-.427,1.355,1.355,0,0,0-.142-.149,2.016,2.016,0,0,0-.193-.171,13.232,13.232,0,0,0-4.525-2.2c-.478-.145-1-.282-1.55-.407-.179-.041-.359-.083-.546-.117-.339-.071-.693-.137-1.064-.2-.181-.032-.368-.062-.558-.09-.352-.052-.715-.1-1.093-.144-.189-.023-.381-.043-.576-.065-.362-.037-.738-.07-1.123-.1l-.588-.042a.762.762,0,0,0-.082,0c-.263-.017-.532-.032-.807-.044l-.236.031-1.067-3.465-15.3,1.967.448,3.483Z" transform="translate(-9875.821 1580.215)" fill="#fbbb37"/>
      <path id="Trazado_1015280" data-name="Trazado 1015280" d="M1252.292,2718.111a2.432,2.432,0,1,0-2.121,2.5,2.324,2.324,0,0,0,2.121-2.5" transform="translate(-9896.069 1539.01)" fill="#fdfdfd"/>
      <path id="Trazado_1015281" data-name="Trazado 1015281" d="M1233.8,2746.333a2.226,2.226,0,0,0,2.22,1.957c4.248.155,14.135.333,20.831-1a17.849,17.849,0,0,0,4.464-1.395,2.558,2.558,0,0,0,1.389-3.032,2.628,2.628,0,0,1-1.495,2.207,17.858,17.858,0,0,1-4.464,1.394c-6.7,1.332-16.583,1.154-20.831,1a2.27,2.27,0,0,1-2.151-1.581Z" transform="translate(-9884.015 1515.57)"/>
      <path id="Trazado_1015282" data-name="Trazado 1015282" d="M1419.026,2715.624a17.87,17.87,0,0,0,4.464-1.394,2.5,2.5,0,0,0,.549-4.239,13.243,13.243,0,0,0-4.523-2.2c-.694,1.063-1.981,3.783-.49,7.837" transform="translate(-10046.298 1546.412)" fill="#fdfdfd"/>
      <path id="Trazado_1015283" data-name="Trazado 1015283" d="M1404.068,2705.088a.317.317,0,0,0,.157.017.294.294,0,0,0,.218-.134l.841-1.4c-.177-.04-.358-.08-.544-.117l-.794,1.326a.213.213,0,0,0,.12.311" transform="translate(-10033.62 1550.224)" fill="#fdfdfd"/>
      <path id="Trazado_1015284" data-name="Trazado 1015284" d="M1391.165,2702.611a.324.324,0,0,0,.157.019.3.3,0,0,0,.218-.134l.791-1.323c-.183-.031-.37-.061-.559-.088l-.728,1.216a.212.212,0,0,0,.12.311" transform="translate(-10022.275 1552.304)" fill="#fdfdfd"/>
      <path id="Trazado_1015285" data-name="Trazado 1015285" d="M1378.266,2700.681a.324.324,0,0,0,.156.019.3.3,0,0,0,.219-.134l.7-1.161c-.188-.023-.379-.043-.575-.064l-.616,1.029a.211.211,0,0,0,.12.311" transform="translate(-10010.934 1553.838)" fill="#fdfdfd"/>
      <path id="Trazado_1015286" data-name="Trazado 1015286" d="M1365.364,2699.263a.308.308,0,0,0,.157.019.294.294,0,0,0,.218-.134l.556-.928q-.291-.023-.589-.041l-.463.773a.212.212,0,0,0,.12.311" transform="translate(-9999.592 1554.859)" fill="#fdfdfd"/>
      <path id="Trazado_1015287" data-name="Trazado 1015287" d="M1358.523,2673.425a.107.107,0,0,0,.024.056,19.988,19.988,0,0,1,.793,2.068,7.236,7.236,0,0,0,.434.984.892.892,0,0,0,.791.553c.706-.021.622-.894.539-1.319a3.335,3.335,0,0,0-.722-1.5,3.524,3.524,0,0,0-1.024-.841l-.03-.016c-.05-.026-.1-.052-.155-.078-.031-.015-.143-.05-.154-.09-.023-.083.267-.227.323-.264.134-.088.268-.177.4-.268a7.684,7.684,0,0,0,.767-.6,4.557,4.557,0,0,0,.641-.694,1.723,1.723,0,0,0,.377-.814.6.6,0,0,0-.386-.647.964.964,0,0,0-.856.157,3.21,3.21,0,0,0-.68.717,5.384,5.384,0,0,0-.48.768,6.661,6.661,0,0,0-.583,1.706c0,.011,0,.023-.007.034a.264.264,0,0,0-.012.03.114.114,0,0,0,0,.062m.487-.627a5.949,5.949,0,0,1,.465-1.163,4.813,4.813,0,0,1,.531-.795,1.5,1.5,0,0,1,.756-.612.322.322,0,0,1,.422.367,1.632,1.632,0,0,1-.384.732,5.825,5.825,0,0,1-1.3,1.158c-.153.106-.329.2-.487.312m-.036.791a3.534,3.534,0,0,1,1.186.927,3,3,0,0,1,.619,1.37,1.533,1.533,0,0,1,.007.693c-.094.3-.421.2-.576.012a2.893,2.893,0,0,1-.386-.742c-.12-.282-.222-.572-.324-.861-.163-.47-.32-.943-.526-1.4" transform="translate(-9993.704 1579.717)"/>
      <path id="Trazado_1015288" data-name="Trazado 1015288" d="M1233.194,1474.173h.018a.182.182,0,0,0,.173-.189l-.531-11.848a.181.181,0,1,0-.362.016l.531,11.848a.181.181,0,0,0,.171.173" transform="translate(-9882.898 2641.774)"/>
      <path id="Trazado_1015289" data-name="Trazado 1015289" d="M946.618,1486.833h.018a.181.181,0,0,0,.173-.188l-.177-4.26a.181.181,0,1,0-.362.015l.177,4.26a.181.181,0,0,0,.171.173" transform="translate(-9631.245 2623.971)"/>
      <path id="Trazado_1015290" data-name="Trazado 1015290" d="M807.153,1760.056s-8.97,5.446-18.266,3.724c0,0-7.982-35.265-6.231-57.3,0,0-4.439-10.2-7.971-29.847L770,1697.961a104.42,104.42,0,0,1-4.682,16.608c-1.974,4.795-3.784,9.655-5.5,14.545l-10.487,29.807s-10.451,1.564-18.424-3.612c0,0,6.258-35.615,16.43-55.266,0,0,1.272-46.885,11.341-63.02l31.337-.851,6.4,25.74,6.2,33.969A105.069,105.069,0,0,1,804.722,1713c.037,5.18.252,10.358.559,15.532Z" transform="translate(-9441.89 2488.605)" fill="#5b50ec"/>
      <path id="Trazado_1015291" data-name="Trazado 1015291" d="M967.784,1128.684l17.587-7.248a14.827,14.827,0,0,0,6.051-4.6l6.218-7.99.371-.478,0,0q.961-1.3,1.883-2.635a115.141,115.141,0,0,0,6.6-10.719c.131-.244.266-.49.409-.731l.011-.018c.082-.139.168-.275.258-.406h0l.875-1.377c.267-.064.528-.135.782-.21l.034-.01a17.762,17.762,0,0,0,1.764-.639,7.712,7.712,0,0,0,3.2-2.463,4.51,4.51,0,0,0,.892-1.83.936.936,0,0,0-.859-1.118,1.283,1.283,0,0,0-.329.023c.054-.059.1-.118.144-.175a1.636,1.636,0,0,0,.269-.53,1.017,1.017,0,0,0,.02-.474,0,0,0,0,0,0-.005.916.916,0,0,0-.622-.716,1.266,1.266,0,0,0-.83.057l0,0a1.516,1.516,0,0,0,.429-.774,1.3,1.3,0,0,0-.2-1,1.263,1.263,0,0,0-.6-.476,1.311,1.311,0,0,0-.5-.082.038.038,0,0,0-.016,0,1.1,1.1,0,0,0-.368.076l0,0q.986-2.106,1.974-4.209a2.106,2.106,0,0,0,.289-1.511.8.8,0,0,0-.552-.559c-.446-.115-.8.231-1.076.551a51.415,51.415,0,0,0-4.754,6.351,16.211,16.211,0,0,1-.824-2.33c-.251-.938-.368-1.727-.909-1.934a.645.645,0,0,0-.5,0c-.3.158-.326.662-.353.825a44.386,44.386,0,0,0-.776,7.164l-16.751,18.5-3.6,4.728-19.639,7.276Z" transform="translate(-9646.624 2981.272)" fill="#ffb192"/>
      <path id="Trazado_1015292" data-name="Trazado 1015292" d="M1120.116,1361.329a.179.179,0,0,0,.008-.112,7.179,7.179,0,0,1,.46-3.609.181.181,0,1,0-.336-.136,7.4,7.4,0,0,0-.476,3.832.181.181,0,0,0,.344.025" transform="translate(-9783.696 2733.745)"/>
      <path id="Trazado_1015293" data-name="Trazado 1015293" d="M1288.723,1340.834a20.493,20.493,0,0,0,5.822,4.019,8.514,8.514,0,0,0,5.232.564h0a14.826,14.826,0,0,0,5.445-3.021l7.625-6.66.455-.4,0,0q1.193-1.1,2.35-2.228a115.005,115.005,0,0,0,8.521-9.267c.176-.214.354-.431.54-.639l.014-.015c.108-.121.217-.239.33-.351h0l1.121-1.185c.275-.012.544-.032.807-.058l.035,0a17.689,17.689,0,0,0,1.853-.293,7.7,7.7,0,0,0,3.608-1.81,4.494,4.494,0,0,0,1.224-1.627.934.934,0,0,0-.63-1.26,1.235,1.235,0,0,0-.326-.041,1.95,1.95,0,0,0,.174-.144,1.618,1.618,0,0,0,.365-.468,1.019,1.019,0,0,0,.111-.462s0,0,0,0a.915.915,0,0,0-.474-.821,1.265,1.265,0,0,0-.825-.1h0a1.525,1.525,0,0,0,.568-.678,1.3,1.3,0,0,0-.008-1.022,1.26,1.26,0,0,0-.5-.582,1.3,1.3,0,0,0-.476-.176.033.033,0,0,0-.016,0,1.1,1.1,0,0,0-.376.005h0q1.368-1.879,2.738-3.757a2.1,2.1,0,0,0,.572-1.428.807.807,0,0,0-.437-.654c-.415-.2-.826.075-1.161.336a51.418,51.418,0,0,0-5.876,5.33,16.085,16.085,0,0,1-.365-2.445c-.069-.968-.033-1.765-.526-2.071a.641.641,0,0,0-.494-.1c-.323.1-.446.588-.5.742a44.374,44.374,0,0,0-2.124,6.886l-15.508,11.633q-4.455,3.342-8.617,7.051l-3.326-2.628Z" transform="translate(-9932.339 2778.731)" fill="#ffb192"/>
      <path id="Trazado_1015294" data-name="Trazado 1015294" d="M910.078,1362.794a25.488,25.488,0,0,0,2.808,5.427l-.376,6.071c.03,8.625,6.735,10.086,6.735,10.086,12.244,4.22,24.859-.008,24.859-.008,3.023-.847,4.326-3.173,4.813-5.623a17.066,17.066,0,0,0,.04-5.543l4.534,4.024.689.611.658.584q.653-.438,1.238-.911a19.489,19.489,0,0,0,6.8-12.24c.053-.355.089-.661.113-.907.042-.44.047-.689.047-.689l-9.757-10.84-.008-.01-1.039-1.154a20.284,20.284,0,0,0-9.65-6.012,16.8,16.8,0,0,0-4.243-.667l-2.7-.106c-.029.042-.076.111-.144.2-.9,1.193-5.191,6.075-11.828.069l-.059-.053q-.664.1-1.324.214a36.331,36.331,0,0,0-3.9.934l-.931.279a15.49,15.49,0,0,0-6.044,3.741c-.087.072-.172.147-.257.226a7.309,7.309,0,0,0-1.74,2.555c-1.518,3.495-.273,7.119.67,9.742" transform="translate(-9598.211 2744.711)" fill="#fff"/>
      <path id="Trazado_1015295" data-name="Trazado 1015295" d="M1228.581,1496.472h.032a.181.181,0,0,0,.158-.2l-1.28-10.477a.181.181,0,1,0-.36.044l1.28,10.477a.181.181,0,0,0,.17.159" transform="translate(-9878.184 2620.963)"/>
      <path id="Trazado_1015296" data-name="Trazado 1015296" d="M1358.14,1537.82h.021a.181.181,0,0,0,.175-.187,6.9,6.9,0,0,1,1.474-3.886.181.181,0,1,0-.281-.229,7.14,7.14,0,0,0-1.555,4.126.181.181,0,0,0,.165.175" transform="translate(-9993.225 2578.919)"/>
      <path id="Trazado_1015297" data-name="Trazado 1015297" d="M1328.71,1135.48a11.311,11.311,0,0,1-2.208.286,1.069,1.069,0,0,1-.826-.209c-.12-.135-.175-.4,0-.511s.022-.362-.165-.319c-.464.107-1.257.26-1.486-.324a.75.75,0,0,1,.229-.708,2.177,2.177,0,0,1,.622-.513c.206-.116,0-.4-.207-.3a2.966,2.966,0,0,1-1.728.494c-.562-.089-.067-.76.1-1a8.1,8.1,0,0,1,.876-1.047,7.922,7.922,0,0,1,2.268-1.6c.21-.1.088-.44-.123-.341a8.317,8.317,0,0,0-2.769,2.076q-.265.3-.5.632a3.1,3.1,0,0,0-.413.69.739.739,0,0,0,.033.692.835.835,0,0,0,.707.271,2.294,2.294,0,0,0,.705-.108.941.941,0,0,0-.132.921,1.1,1.1,0,0,0,.74.589,1.823,1.823,0,0,0,.778,0,.768.768,0,0,0,.054.421.981.981,0,0,0,.829.536,5.907,5.907,0,0,0,1.329-.05,12.355,12.355,0,0,0,1.406-.242c.227-.052.1-.392-.123-.341" transform="translate(-9961.873 2934.198)"/>
      <path id="Trazado_1015298" data-name="Trazado 1015298" d="M888.492,1190.367c.481,4.1,3.864,6.455,4.793,7.1a14.016,14.016,0,0,0,8.224,2.257c.775.016,9.057.062,14.6-6.109a20.653,20.653,0,0,0,3.44-5.5,23.115,23.115,0,0,0,1.946-7.078,32.118,32.118,0,0,0-.377-7.2c-.44-2.845-.655-3.514-.82-4.561-.126-.8-.079-.821-.242-2.31-.106-.968-.177-1.594-.327-2.427a9.982,9.982,0,0,0-.392-1.714A5.582,5.582,0,0,0,918,1160.7a4.552,4.552,0,0,0-1.725-1.127,4.493,4.493,0,0,0-2.932.03,12.373,12.373,0,0,0-4.1-.221,10.8,10.8,0,0,0-6.049,2.748,12.431,12.431,0,0,0-4,7.917c0,.044-.063.863-.185,2.5a9.073,9.073,0,0,1-.283,1.856,6.094,6.094,0,0,1-.4,1.134c-.911,1.86-3.463,3.293-5.51,5.179a13.494,13.494,0,0,0-2.767,3.324,10.343,10.343,0,0,0-1.55,6.327" transform="translate(-9580.395 2907.895)"/>
      <path id="Trazado_1015299" data-name="Trazado 1015299" d="M886.527,1255.482a5.75,5.75,0,0,1-.959,2.638,15.974,15.974,0,0,1-1.883,2.182,30.44,30.44,0,0,1-2.458,2.264c-.875.726-1.771,1.429-2.625,2.18a14.512,14.512,0,0,0-3.418,4.26,12.366,12.366,0,0,0-.975,2.431,7.414,7.414,0,0,0-.226,2.448,10.537,10.537,0,0,0,.5,2.379,11.5,11.5,0,0,0,1.173,2.553q.238.387.5.754c.136.187-.133.431-.27.242a12.33,12.33,0,0,1-2.153-5.027,7.923,7.923,0,0,1-.039-2.678,10.152,10.152,0,0,1,.852-2.616,14.745,14.745,0,0,1,1.048-1.919,14.267,14.267,0,0,1,1.8-2.189c1.617-1.632,3.538-2.923,5.2-4.5.4-.377.775-.773,1.154-1.168.336-.35.67-.7.979-1.077a6.211,6.211,0,0,0,1.313-2.438,5.178,5.178,0,0,0,.123-.737c.023-.231.385-.213.362.02" transform="translate(-9567.354 2823.479)"/>
      <path id="Trazado_1015300" data-name="Trazado 1015300" d="M998,1773.456a.181.181,0,0,1-.179-.156l-2.117-15.389a14.736,14.736,0,0,1-5.263-1.761,10.219,10.219,0,0,1-5.282-9.617.179.179,0,0,1,.184-.178.181.181,0,0,1,.178.185,9.777,9.777,0,0,0,5.1,9.3,14.463,14.463,0,0,0,5.259,1.73.181.181,0,0,1,.164.156l2.137,15.529a.181.181,0,0,1-.155.2l-.025,0" transform="translate(-9665.434 2391.729)"/>
      <path id="Trazado_1015301" data-name="Trazado 1015301" d="M942.277,1456.227a.181.181,0,0,1-.181-.178,46.821,46.821,0,0,1,1.335-10.476.181.181,0,0,1,.352.084,46.468,46.468,0,0,0-1.325,10.385.181.181,0,0,1-.178.184Z" transform="translate(-9627.574 2656.307)"/>
      <path id="Trazado_1015302" data-name="Trazado 1015302" d="M842.031,407.436h-3.623a.242.242,0,1,1,0-.483h3.623a.242.242,0,1,1,0,.483m-7.246,0h-3.623a.242.242,0,1,1,0-.483h3.623a.242.242,0,1,1,0,.483m-7.246,0h-3.623a.242.242,0,0,1,0-.483h3.623a.242.242,0,1,1,0,.483m-7.246,0h-3.623a.242.242,0,0,1,0-.483h3.623a.242.242,0,0,1,0,.483m-7.246,0h-2.94a.242.242,0,1,1,0-.483h2.94a.242.242,0,0,1,0,.483" transform="translate(-9511.313 3569.367)"/>
      <path id="Trazado_1015303" data-name="Trazado 1015303" d="M320.45,1987.352a.242.242,0,0,1-.242-.241v-2.778a.242.242,0,1,1,.483,0v2.778a.242.242,0,0,1-.242.241m0-6.4a.242.242,0,0,1-.242-.241v-3.623a.242.242,0,0,1,.483,0v3.623a.242.242,0,0,1-.242.241m0-7.246a.242.242,0,0,1-.242-.242v-3.623a.242.242,0,1,1,.483,0v3.623a.242.242,0,0,1-.242.242m0-7.246a.242.242,0,0,1-.242-.242v-3.623a.242.242,0,1,1,.483,0v3.623a.242.242,0,0,1-.242.242m0-7.246a.242.242,0,0,1-.242-.242v-3.623a.242.242,0,1,1,.483,0v3.623a.242.242,0,0,1-.242.242" transform="translate(-9080.794 2208.189)"/>
      <path id="Trazado_1015304" data-name="Trazado 1015304" d="M2120.29,525.4a.241.241,0,0,1-.241-.242V521.54a.242.242,0,0,1,.483,0v3.623a.242.242,0,0,1-.242.242m0-7.246a.241.241,0,0,1-.241-.242v-3.623a.242.242,0,0,1,.483,0v3.623a.242.242,0,0,1-.242.242m0-7.246a.241.241,0,0,1-.241-.242v-3.623a.242.242,0,0,1,.483,0v3.623a.242.242,0,0,1-.242.242m0-7.246a.241.241,0,0,1-.241-.242V499.8a.242.242,0,0,1,.483,0v3.623a.242.242,0,0,1-.242.242m0-7.246a.241.241,0,0,1-.241-.242v-3.623a.242.242,0,0,1,.483,0v3.623a.242.242,0,0,1-.242.242m0-7.246a.241.241,0,0,1-.241-.242v-3.623a.242.242,0,0,1,.483,0v3.623a.242.242,0,0,1-.242.242m0-7.246a.241.241,0,0,1-.241-.242v-3.623a.242.242,0,0,1,.483,0v3.623a.242.242,0,0,1-.242.242m0-7.246a.241.241,0,0,1-.241-.242v-3.623a.242.242,0,0,1,.483,0v3.623a.242.242,0,0,1-.242.242m0-7.246a.241.241,0,0,1-.241-.242v-3.623a.242.242,0,0,1,.483,0v3.623a.242.242,0,0,1-.242.242m0-7.246a.241.241,0,0,1-.241-.242v-3.623a.242.242,0,0,1,.483,0v3.623a.242.242,0,0,1-.242.242m0-7.246a.241.241,0,0,1-.241-.242v-3.623a.242.242,0,0,1,.483,0V452.7a.242.242,0,0,1-.242.242m0-7.246a.241.241,0,0,1-.241-.242V441.83a.242.242,0,0,1,.483,0v3.623a.242.242,0,0,1-.242.242m0-7.246a.241.241,0,0,1-.241-.242v-3.623a.242.242,0,0,1,.483,0v3.623a.242.242,0,0,1-.242.242m0-7.246a.241.241,0,0,1-.241-.242v-3.623a.242.242,0,0,1,.483,0v3.623a.242.242,0,0,1-.242.242m0-7.246a.241.241,0,0,1-.241-.242V420.09a.242.242,0,0,1,.483,0v3.623a.242.242,0,0,1-.242.242m0-7.246a.241.241,0,0,1-.241-.242v-3.623a.242.242,0,0,1,.483,0v3.623a.242.242,0,0,1-.242.242m0-7.246a.241.241,0,0,1-.241-.242V407.53H2118.6a.242.242,0,1,1,0-.483h1.691a.242.242,0,0,1,.242.242v1.932a.242.242,0,0,1-.242.242m-16.183-1.925a.242.242,0,0,1,0-.483l3.623,0a.242.242,0,1,1,0,.483Zm7.246,0a.242.242,0,0,1,0-.483l3.623,0a.242.242,0,1,1,0,.483Z" transform="translate(-10649.034 3569.285)"/>
      <path id="Trazado_1015305" data-name="Trazado 1015305" d="M1803.942,1178.284a.241.241,0,0,1-.242-.241v-3.623a.242.242,0,0,1,.483,0v3.623a.242.242,0,0,1-.242.241m0-7.246a.241.241,0,0,1-.242-.242v-3.623a.242.242,0,1,1,.483,0v3.623a.242.242,0,0,1-.242.242m0-7.246a.241.241,0,0,1-.242-.241v-3.623a.242.242,0,0,1,.483,0v3.623a.242.242,0,0,1-.242.241m0-7.246a.241.241,0,0,1-.242-.241v-3.623a.242.242,0,1,1,.483,0v3.623a.242.242,0,0,1-.242.241m0-7.246a.241.241,0,0,1-.242-.242v-1.468h-1.672a.242.242,0,1,1,0-.483h1.914a.242.242,0,0,1,.242.241v1.709a.242.242,0,0,1-.242.242m-5.537-1.709h-3.623a.242.242,0,1,1,0-.483h3.623a.242.242,0,1,1,0,.483m-7.246,0h-3.623a.242.242,0,1,1,0-.483h3.623a.242.242,0,1,1,0,.483m-7.246,0h-3.623a.242.242,0,1,1,0-.483h3.623a.242.242,0,1,1,0,.483m-7.246,0h-3.623a.242.242,0,0,1,0-.483h3.623a.242.242,0,0,1,0,.483m-7.246,0h-2.313a.242.242,0,0,1,0-.483h2.313a.242.242,0,1,1,0,.483" transform="translate(-10352.734 2918.605)"/>
      <path id="Trazado_1015306" data-name="Trazado 1015306" d="M581.318,230.927h-3.623a.242.242,0,0,1,0-.483h3.623a.242.242,0,0,1,0,.483m-7.246,0h-3.623a.242.242,0,0,1,0-.483h3.623a.242.242,0,0,1,0,.483m-7.246,0H563.2a.242.242,0,1,1,0-.483h3.623a.242.242,0,0,1,0,.483m-7.246,0h-3.623a.242.242,0,1,1,0-.483h3.623a.242.242,0,1,1,0,.483m24.566-.8a.242.242,0,0,1-.242-.242v-3.623a.242.242,0,1,1,.483,0v3.623a.242.242,0,0,1-.242.242m0-7.246a.242.242,0,0,1-.242-.242v-3.623a.242.242,0,1,1,.483,0v3.623a.242.242,0,0,1-.242.242m0-7.246a.242.242,0,0,1-.242-.242v-3.623a.242.242,0,1,1,.483,0V215.4a.242.242,0,0,1-.242.242m0-7.246a.242.242,0,0,1-.242-.242v-3.623a.242.242,0,1,1,.483,0v3.623a.242.242,0,0,1-.242.242m0-7.246a.242.242,0,0,1-.242-.242V197.28a.242.242,0,1,1,.483,0V200.9a.242.242,0,0,1-.242.242m0-7.246a.242.242,0,0,1-.242-.242v-3.623a.242.242,0,1,1,.483,0v3.623a.242.242,0,0,1-.242.242m0-7.246a.242.242,0,0,1-.242-.242v-3.623a.242.242,0,1,1,.483,0v3.623a.242.242,0,0,1-.242.242m0-7.246a.242.242,0,0,1-.242-.242v-3.623a.242.242,0,1,1,.483,0v3.623a.242.242,0,0,1-.242.242m0-7.246a.242.242,0,0,1-.242-.242v-1.329h-1.812a.242.242,0,0,1,0-.483h2.053a.242.242,0,0,1,.242.242v1.57a.242.242,0,0,1-.242.242m-5.676-1.57h-3.623a.242.242,0,0,1,0-.483h3.623a.242.242,0,0,1,0,.483m-7.246,0H567.6a.242.242,0,1,1,0-.483h3.623a.242.242,0,1,1,0,.483m-7.246,0h-3.623a.242.242,0,1,1,0-.483h3.623a.242.242,0,1,1,0,.483m-7.246,0h-3.623a.242.242,0,1,1,0-.483h3.623a.242.242,0,1,1,0,.483" transform="translate(-9285.352 3777.61)"/>
      <path id="Trazado_1015307" data-name="Trazado 1015307" d="M584.144,407.436h-2.053a.242.242,0,0,1,0-.483h2.053a.242.242,0,0,1,0,.483m-5.676,0h-3.623a.242.242,0,0,1,0-.483h3.623a.242.242,0,0,1,0,.483m-7.246,0H567.6a.242.242,0,1,1,0-.483h3.623a.242.242,0,1,1,0,.483m-7.246,0h-3.623a.242.242,0,1,1,0-.483h3.623a.242.242,0,1,1,0,.483m-7.246,0h-3.623a.242.242,0,1,1,0-.483h3.623a.242.242,0,1,1,0,.483" transform="translate(-9285.352 3569.367)"/>
      <path id="Trazado_1015308" data-name="Trazado 1015308" d="M282.219,82.852V63.582h1.075V62.043a.937.937,0,0,1,.937-.936h6.193a.937.937,0,0,1,.937.936v1.433h17.965V82.852Z" transform="translate(-9047.394 3873.445)" fill="#eda024"/>
      <path id="Trazado_1015309" data-name="Trazado 1015309" d="M288.413,98.209H267.145V79.191h25.892V93.553Z" transform="translate(-9034.141 3857.545)" fill="#fff"/>
      <path id="Trazado_1015310" data-name="Trazado 1015310" d="M443.243,202.764v-4.656h4.624Z" transform="translate(-9188.971 3752.99)" fill="#e1e5ff"/>
      <path id="Trazado_1015311" data-name="Trazado 1015311" d="M285.421,91.623h27.326l-3.422,18.059H282.218Z" transform="translate(-9047.393 3846.614)" fill="#fbbb37"/>
      <path id="Trazado_1015312" data-name="Trazado 1015312" d="M282.219,340.852v-19.27h1.075v-1.538a.937.937,0,0,1,.937-.936h6.193a.937.937,0,0,1,.937.936v1.433h17.965v19.376Z" transform="translate(-9047.394 3646.604)" fill="#eda024"/>
      <path id="Trazado_1015313" data-name="Trazado 1015313" d="M288.413,356.209H267.145V337.191h25.892v14.362Z" transform="translate(-9034.141 3630.704)" fill="#fff"/>
      <path id="Trazado_1015314" data-name="Trazado 1015314" d="M443.243,460.764v-4.656h4.624Z" transform="translate(-9188.971 3526.149)" fill="#e1e5ff"/>
      <path id="Trazado_1015315" data-name="Trazado 1015315" d="M285.421,349.623h27.326l-3.422,18.059H282.218Z" transform="translate(-9047.393 3619.773)" fill="#fbbb37"/>
      <path id="Trazado_1015316" data-name="Trazado 1015316" d="M282.219,598.852v-19.27h1.075v-1.538a.937.937,0,0,1,.937-.936h6.193a.937.937,0,0,1,.937.936v1.433h17.965v19.376Z" transform="translate(-9047.394 3419.763)" fill="#eda024"/>
      <path id="Trazado_1015317" data-name="Trazado 1015317" d="M288.413,614.209H267.145V595.191h25.892v14.362Z" transform="translate(-9034.141 3403.864)" fill="#fff"/>
      <path id="Trazado_1015318" data-name="Trazado 1015318" d="M443.243,718.764v-4.656h4.624Z" transform="translate(-9188.971 3299.309)" fill="#e1e5ff"/>
      <path id="Trazado_1015319" data-name="Trazado 1015319" d="M285.421,607.623h27.326l-3.422,18.059H282.218Z" transform="translate(-9047.393 3392.933)" fill="#fbbb37"/>
      <path id="Trazado_1015320" data-name="Trazado 1015320" d="M330.1,1290.653v10.136a2.375,2.375,0,0,1-2.376,2.375h-28.04l-7.323,9.954-1.175-9.954H280.544a2.375,2.375,0,0,1-2.376-2.375v-10.136a2.375,2.375,0,0,1,2.376-2.375h47.182a2.375,2.375,0,0,1,2.376,2.375" transform="translate(-9043.832 2794.483)" fill="#a7abf2"/>
      <rect id="Rectángulo_462164" data-name="Rectángulo 462164" width="37.238" height="2.436" transform="translate(-8758.277 4089.233)" fill="#fff"/>
      <path id="Trazado_1015321" data-name="Trazado 1015321" d="M44.727,1098.594v8.73a2.046,2.046,0,0,1-2.046,2.046H18.532l-6.307,8.573-1.012-8.573H2.046A2.046,2.046,0,0,1,0,1107.324v-8.73a2.046,2.046,0,0,1,2.046-2.046H42.681a2.046,2.046,0,0,1,2.046,2.046" transform="translate(-8799.259 2963.057)" fill="#a7abf2"/>
      <rect id="Rectángulo_462165" data-name="Rectángulo 462165" width="8.319" height="2.436" transform="translate(-8793.746 4064.354)" fill="#fff"/>
      <rect id="Rectángulo_462166" data-name="Rectángulo 462166" width="8.319" height="2.436" transform="translate(-8781.076 4064.354)" fill="#fff"/>
      <rect id="Rectángulo_462167" data-name="Rectángulo 462167" width="8.319" height="2.436" transform="translate(-8768.406 4064.354)" fill="#fff"/>
      <path id="Trazado_1015322" data-name="Trazado 1015322" d="M233.5,2241.373a14.444,14.444,0,1,0-14.444,14.444,14.444,14.444,0,0,0,14.444-14.444" transform="translate(-8979.164 1969.195)" fill="#a7abf2"/>
      <path id="Trazado_1015323" data-name="Trazado 1015323" d="M270.217,2285.888v-3.509H268.74a7.273,7.273,0,0,0-.835-2.036l1.054-1.054-2.481-2.481-1.045,1.045a7.288,7.288,0,0,0-2.03-.85v-1.489h-3.509v1.477a7.274,7.274,0,0,0-2.036.835l-1.054-1.054-2.481,2.481,1.045,1.045a7.282,7.282,0,0,0-.85,2.03H253.03v3.509h1.477a7.274,7.274,0,0,0,.835,2.036l-1.054,1.054,2.481,2.481,1.045-1.045a7.28,7.28,0,0,0,2.03.85v1.49h3.509v-1.477a7.281,7.281,0,0,0,2.036-.835l1.054,1.054,2.481-2.481-1.045-1.045a7.28,7.28,0,0,0,.85-2.03Zm-8.594,2.492a4.271,4.271,0,1,1,4.271-4.271,4.271,4.271,0,0,1-4.271,4.271" transform="translate(-9021.729 1926.477)" fill="#fff"/>
      <path id="Trazado_1015324" data-name="Trazado 1015324" d="M499.784,899.74v14.417a2.375,2.375,0,0,1-2.376,2.375H460.623l-9.428,12.816-1.513-12.816H435.293a2.375,2.375,0,0,1-2.375-2.375V899.74a2.376,2.376,0,0,1,2.375-2.376h62.115a2.376,2.376,0,0,1,2.376,2.376" transform="translate(-9179.893 3138.185)" fill="#a7abf2"/>
      <rect id="Rectángulo_462168" data-name="Rectángulo 462168" width="37.238" height="2.436" transform="translate(-8740.845 4043.745)" fill="#fff"/>
      <rect id="Rectángulo_462169" data-name="Rectángulo 462169" width="13.084" height="2.436" transform="translate(-8699.21 4043.745)" fill="#fff"/>
      <path id="Trazado_1015325" data-name="Trazado 1015325" d="M1619.584,1081.477a9.546,9.546,0,1,0-9.546,9.546,9.546,9.546,0,0,0,9.546-9.546" transform="translate(-10206.455 2984.701)" fill="#a7abf2"/>
      <path id="Trazado_1015326" data-name="Trazado 1015326" d="M1632.813,1117.239a6.418,6.418,0,0,1-2.857-12.165.875.875,0,1,1,.78,1.567,4.667,4.667,0,1,0,3.946-.1.875.875,0,1,1,.7-1.6,6.418,6.418,0,0,1-2.572,12.3" transform="translate(-10229.23 2955.743)" fill="#fff"/>
      <path id="Trazado_1015327" data-name="Trazado 1015327" d="M1673.161,1100.267a.875.875,0,0,1-.875-.875v-3.882a.875.875,0,0,1,1.75,0v3.882a.875.875,0,0,1-.875.875" transform="translate(-10269.578 2964.74)" fill="#fff"/>
      <path id="Trazado_1015328" data-name="Trazado 1015328" d="M1218.495,82.453v78.3a5.393,5.393,0,0,1-5.222,5.549H1103.427a5.393,5.393,0,0,1-5.222-5.549v-78.3a5.393,5.393,0,0,1,5.222-5.548h109.845a5.393,5.393,0,0,1,5.222,5.548" transform="translate(-9764.83 3859.555)" fill="#a7abf2"/>
      <path id="Trazado_1015329" data-name="Trazado 1015329" d="M1218.495,81.44v7.2L1098.2,88.62V81.44c0-2.5,2.338-4.535,5.222-4.535h109.845c2.884,0,5.222,2.03,5.222,4.535" transform="translate(-9764.83 3859.555)" fill="#5b50ec"/>
      <rect id="Rectángulo_462170" data-name="Rectángulo 462170" width="66.491" height="36.482" transform="translate(-8660.573 3954.938)" fill="#fff"/>
      <path id="Trazado_1015330" data-name="Trazado 1015330" d="M2022.277,107.44a2.536,2.536,0,1,0-2.536,2.536,2.536,2.536,0,0,0,2.536-2.536" transform="translate(-10572.84 3834.937)" fill="#a7abf2"/>
      <path id="Trazado_1015331" data-name="Trazado 1015331" d="M1950.277,107.44a2.536,2.536,0,1,0-2.536,2.536,2.536,2.536,0,0,0,2.536-2.536" transform="translate(-10509.536 3834.937)" fill="#a7abf2"/>
      <path id="Trazado_1015332" data-name="Trazado 1015332" d="M1878.277,107.44a2.536,2.536,0,1,0-2.536,2.536,2.536,2.536,0,0,0,2.536-2.536" transform="translate(-10446.231 3834.937)" fill="#a7abf2"/>
      <rect id="Rectángulo_462171" data-name="Rectángulo 462171" width="66.511" height="4.403" transform="translate(-8660.593 3997.008)" fill="#fff"/>
      <rect id="Rectángulo_462172" data-name="Rectángulo 462172" width="47.791" height="4.403" transform="translate(-8660.593 4017.056)" fill="#fff"/>
      <rect id="Rectángulo_462173" data-name="Rectángulo 462173" width="54.071" height="4.403" transform="translate(-8606.486 4017.056)" fill="#fff"/>
      <rect id="Rectángulo_462174" data-name="Rectángulo 462174" width="34.748" height="4.403" transform="translate(-8660.593 4007.032)" fill="#fff"/>
      <rect id="Rectángulo_462175" data-name="Rectángulo 462175" width="42.598" height="4.403" transform="translate(-8619.65 4007.032)" fill="#fff"/>
      <rect id="Rectángulo_462176" data-name="Rectángulo 462176" width="18.443" height="4.403" transform="translate(-8570.858 4007.032)" fill="#fff"/>
      <rect id="Rectángulo_462177" data-name="Rectángulo 462177" width="35.186" height="4.403" transform="translate(-8587.56 3997.008)" fill="#fff"/>
      <rect id="Rectángulo_462178" data-name="Rectángulo 462178" width="35.186" height="4.403" transform="translate(-8587.56 3986.984)" fill="#fff"/>
      <path id="Trazado_1015333" data-name="Trazado 1015333" d="M1805.4,223.118a14.8,14.8,0,1,1-14.8-14.8,14.743,14.743,0,0,1,14.8,14.8" transform="translate(-10360.591 3744.012)" fill="#5b50ec"/>
      <path id="Trazado_1015334" data-name="Trazado 1015334" d="M1864.693,251.263a5.357,5.357,0,1,0-5.357,5.357,5.357,5.357,0,0,0,5.357-5.357" transform="translate(-10429.328 3710.964)" fill="#fff"/>
      <path id="Trazado_1015335" data-name="Trazado 1015335" d="M1829.042,355.915a14.8,14.8,0,0,1-22.067,0,11.717,11.717,0,0,1,22.067,0" transform="translate(-10388 3621.077)" fill="#fff"/>
      <rect id="Rectángulo_462179" data-name="Rectángulo 462179" width="4.145" height="16.33" transform="translate(-8656.851 3972.557)" fill="#5b50ec"/>
      <rect id="Rectángulo_462180" data-name="Rectángulo 462180" width="4.145" height="24.518" transform="translate(-8645.851 3964.369)" fill="#f9b53d"/>
      <rect id="Rectángulo_462181" data-name="Rectángulo 462181" width="4.145" height="13.26" transform="translate(-8634.851 3975.627)" fill="#5b50ec"/>
      <rect id="Rectángulo_462182" data-name="Rectángulo 462182" width="4.145" height="31.512" transform="translate(-8623.851 3957.375)" fill="#f9b53d"/>
      <rect id="Rectángulo_462183" data-name="Rectángulo 462183" width="4.145" height="27.589" transform="translate(-8612.851 3961.298)" fill="#5b50ec"/>
      <rect id="Rectángulo_462184" data-name="Rectángulo 462184" width="4.145" height="24.518" transform="translate(-8601.85 3964.369)" fill="#f9b53d"/>
      <path id="Trazado_1015336" data-name="Trazado 1015336" d="M1835.567,871.746v-3.6h-1.515a7.462,7.462,0,0,0-.856-2.088l1.081-1.081-2.545-2.545-1.071,1.071a7.471,7.471,0,0,0-2.082-.871v-1.528h-3.6v1.515a7.462,7.462,0,0,0-2.088.856l-1.081-1.081-2.545,2.545,1.071,1.071a7.473,7.473,0,0,0-.871,2.082h-1.528v3.6h1.515a7.468,7.468,0,0,0,.856,2.088l-1.081,1.081,2.545,2.545,1.071-1.071a7.465,7.465,0,0,0,2.082.871v1.528h3.6V877.22a7.461,7.461,0,0,0,2.088-.856l1.081,1.081,2.545-2.545-1.071-1.071a7.47,7.47,0,0,0,.871-2.082Zm-8.814,2.555a4.381,4.381,0,1,1,4.381-4.381,4.381,4.381,0,0,1-4.381,4.381" transform="translate(-10397.64 3170.063)" fill="#5b50ec"/>
      <path id="Trazado_1015337" data-name="Trazado 1015337" d="M105.811,1536.236V1580.4a3.13,3.13,0,0,1-3.13,3.13H36.84a3.13,3.13,0,0,1-3.13-3.13v-44.169a3.13,3.13,0,0,1,3.13-3.13h65.841a3.13,3.13,0,0,1,3.13,3.13" transform="translate(-8828.897 2579.223)" fill="#a7abf2"/>
      <path id="Trazado_1015338" data-name="Trazado 1015338" d="M105.811,1536.236v4.933l-72.1-.011v-4.922a3.13,3.13,0,0,1,3.13-3.13h65.841a3.13,3.13,0,0,1,3.13,3.13" transform="translate(-8828.897 2579.223)" fill="#5b50ec"/>
      <path id="Trazado_1015339" data-name="Trazado 1015339" d="M581.755,1553.491a1.75,1.75,0,1,0-1.751,1.75,1.75,1.75,0,0,0,1.751-1.75" transform="translate(-9307.676 2562.839)" fill="#a7abf2"/>
      <path id="Trazado_1015340" data-name="Trazado 1015340" d="M532.063,1553.491a1.75,1.75,0,1,0-1.751,1.75,1.75,1.75,0,0,0,1.751-1.75" transform="translate(-9263.985 2562.839)" fill="#a7abf2"/>
      <path id="Trazado_1015341" data-name="Trazado 1015341" d="M482.371,1553.491a1.75,1.75,0,1,0-1.75,1.75,1.75,1.75,0,0,0,1.75-1.75" transform="translate(-9220.295 2562.839)" fill="#a7abf2"/>
      <rect id="Rectángulo_462185" data-name="Rectángulo 462185" width="26.344" height="1.822" transform="translate(-8785.248 4124.731)" fill="#fff"/>
      <rect id="Rectángulo_462186" data-name="Rectángulo 462186" width="26.368" height="1.822" transform="translate(-8785.248 4130.982)" fill="#fff"/>
      <rect id="Rectángulo_462187" data-name="Rectángulo 462187" width="26.344" height="1.822" transform="translate(-8785.248 4137.228)" fill="#fff"/>
      <rect id="Rectángulo_462188" data-name="Rectángulo 462188" width="26.368" height="1.822" transform="translate(-8785.248 4143.479)" fill="#fff"/>
      <rect id="Rectángulo_462189" data-name="Rectángulo 462189" width="26.344" height="1.822" transform="translate(-8785.248 4149.724)" fill="#fff"/>
      <rect id="Rectángulo_462190" data-name="Rectángulo 462190" width="26.368" height="1.822" transform="translate(-8785.248 4155.976)" fill="#fff"/>
      <path id="Trazado_1015342" data-name="Trazado 1015342" d="M74.931,1631.4a1.686,1.686,0,1,0-1.686,1.686,1.686,1.686,0,0,0,1.686-1.686" transform="translate(-8862.176 2494.285)" fill="#fff"/>
      <path id="Trazado_1015343" data-name="Trazado 1015343" d="M74.931,1683.133a1.686,1.686,0,1,0-1.686,1.686,1.686,1.686,0,0,0,1.686-1.686" transform="translate(-8862.176 2448.798)" fill="#fff"/>
      <path id="Trazado_1015344" data-name="Trazado 1015344" d="M74.931,1734.868a1.686,1.686,0,1,0-1.686,1.686,1.686,1.686,0,0,0,1.686-1.686" transform="translate(-8862.176 2403.311)" fill="#fff"/>
      <path id="Trazado_1015345" data-name="Trazado 1015345" d="M74.931,1786.6a1.686,1.686,0,1,0-1.686,1.686,1.686,1.686,0,0,0,1.686-1.686" transform="translate(-8862.176 2357.823)" fill="#fff"/>
      <path id="Trazado_1015346" data-name="Trazado 1015346" d="M74.931,1838.339a1.686,1.686,0,1,0-1.686,1.686,1.686,1.686,0,0,0,1.686-1.686" transform="translate(-8862.176 2312.337)" fill="#fff"/>
      <path id="Trazado_1015347" data-name="Trazado 1015347" d="M74.931,1890.075a1.686,1.686,0,1,0-1.686,1.686,1.686,1.686,0,0,0,1.686-1.686" transform="translate(-8862.176 2266.849)" fill="#fff"/>
      <rect id="Rectángulo_462191" data-name="Rectángulo 462191" width="28.316" height="28.316" transform="translate(-8755.5 4127.042)" fill="#5b50ec"/>
      <rect id="Rectángulo_462192" data-name="Rectángulo 462192" width="24.122" height="24.122" transform="translate(-8753.403 4129.14)" fill="#5b50ec"/>
      <path id="Trazado_1015348" data-name="Trazado 1015348" d="M518.343,1689.984a2.409,2.409,0,1,0-2.409,2.409,2.409,2.409,0,0,0,2.409-2.409" transform="translate(-9250.763 2443.41)" fill="#fff"/>
      <path id="Trazado_1015349" data-name="Trazado 1015349" d="M403.809,1725.141v5.558H379.687v-9.835l7.171-9.578,5.847,8.446,3.32-3.546Z" transform="translate(-9133.09 2422.562)" fill="#fff"/>
      <path id="Trazado_1015350" data-name="Trazado 1015350" d="M1813.534,1420.925v95.44a2.824,2.824,0,0,1-2.824,2.824h-68.628a2.824,2.824,0,0,1-2.824-2.824v-95.44a2.824,2.824,0,0,1,2.824-2.824h68.628a2.824,2.824,0,0,1,2.824,2.824" transform="translate(-10328.462 2680.339)" fill="#a7abf2"/>
      <path id="Trazado_1015351" data-name="Trazado 1015351" d="M1813.534,1420.925v8.854l-74.275-.011v-8.843a2.824,2.824,0,0,1,2.824-2.824h68.628a2.824,2.824,0,0,1,2.824,2.824" transform="translate(-10328.462 2680.339)" fill="#5b50ec"/>
      <path id="Trazado_1015352" data-name="Trazado 1015352" d="M2286.332,1448.637a2.536,2.536,0,1,0-2.536,2.536,2.536,2.536,0,0,0,2.536-2.536" transform="translate(-10805.004 2655.72)" fill="#a7abf2"/>
      <path id="Trazado_1015353" data-name="Trazado 1015353" d="M2214.332,1448.637a2.536,2.536,0,1,0-2.536,2.536,2.536,2.536,0,0,0,2.536-2.536" transform="translate(-10741.7 2655.72)" fill="#a7abf2"/>
      <path id="Trazado_1015354" data-name="Trazado 1015354" d="M2142.332,1448.637a2.536,2.536,0,1,0-2.536,2.536,2.536,2.536,0,0,0,2.536-2.536" transform="translate(-10678.395 2655.72)" fill="#a7abf2"/>
      <rect id="Rectángulo_462193" data-name="Rectángulo 462193" width="28.652" height="2.639" transform="translate(-8584.704 4114.678)" fill="#fff"/>
      <rect id="Rectángulo_462194" data-name="Rectángulo 462194" width="28.652" height="2.639" transform="translate(-8584.704 4123.494)" fill="#fff"/>
      <rect id="Rectángulo_462195" data-name="Rectángulo 462195" width="28.652" height="2.639" transform="translate(-8584.704 4132.311)" fill="#fff"/>
      <rect id="Rectángulo_462196" data-name="Rectángulo 462196" width="28.652" height="2.639" transform="translate(-8548.713 4144.267)" fill="#fff"/>
      <rect id="Rectángulo_462197" data-name="Rectángulo 462197" width="28.652" height="2.639" transform="translate(-8548.713 4153.083)" fill="#fff"/>
      <rect id="Rectángulo_462198" data-name="Rectángulo 462198" width="28.652" height="2.639" transform="translate(-8548.713 4161.9)" fill="#fff"/>
      <path id="Trazado_1015355" data-name="Trazado 1015355" d="M2087.845,1568.153h-28.991a2,2,0,0,1-2-2v-17.836a2,2,0,0,1,2-2h28.991a2,2,0,0,1,2,2v17.836a2,2,0,0,1-2,2" transform="translate(-10607.701 2567.606)" fill="#fff"/>
      <path id="Trazado_1015356" data-name="Trazado 1015356" d="M2181.244,1602.709l-4.045,2.335-4.045,2.335v-9.342l4.045,2.335Z" transform="translate(-10709.955 2522.133)" fill="#fbbb37"/>
      <rect id="Rectángulo_462199" data-name="Rectángulo 462199" width="28.652" height="2.639" transform="translate(-8584.704 4173.856)" fill="#fff"/>
      <rect id="Rectángulo_462200" data-name="Rectángulo 462200" width="28.652" height="2.639" transform="translate(-8584.704 4182.673)" fill="#fff"/>
      <rect id="Rectángulo_462201" data-name="Rectángulo 462201" width="28.652" height="2.639" transform="translate(-8584.704 4191.489)" fill="#fff"/>
      <path id="Trazado_1015357" data-name="Trazado 1015357" d="M2087.845,2058.153h-28.991a2,2,0,0,1-2-2v-17.837a2,2,0,0,1,2-2h28.991a2,2,0,0,1,2,2v17.837a2,2,0,0,1-2,2" transform="translate(-10607.701 2136.785)" fill="#fff"/>
      <path id="Trazado_1015358" data-name="Trazado 1015358" d="M2181.244,2092.709l-4.045,2.335-4.045,2.335v-9.342l4.045,2.335Z" transform="translate(-10709.955 2091.312)" fill="#fbbb37"/>
      <path id="Trazado_1015359" data-name="Trazado 1015359" d="M1793.846,1813.153h-28.991a2,2,0,0,1-2-2v-17.837a2,2,0,0,1,2-2h28.991a2,2,0,0,1,2,2v17.837a2,2,0,0,1-2,2" transform="translate(-10349.209 2352.196)" fill="#fff"/>
      <path id="Trazado_1015360" data-name="Trazado 1015360" d="M1887.244,1847.709l-4.045,2.335-4.045,2.335v-9.342l4.045,2.335Z" transform="translate(-10451.462 2306.723)" fill="#fbbb37"/>
      <path id="Trazado_1015361" data-name="Trazado 1015361" d="M2006.124,723.655v-5.132h-2.16a10.642,10.642,0,0,0-1.221-2.977l1.541-1.541-3.629-3.629-1.528,1.528a10.644,10.644,0,0,0-2.969-1.243v-2.179h-5.132v2.16a10.647,10.647,0,0,0-2.977,1.221l-1.541-1.541-3.629,3.629,1.528,1.528a10.651,10.651,0,0,0-1.243,2.969h-2.178v5.132h2.16a10.646,10.646,0,0,0,1.221,2.977l-1.541,1.541,3.629,3.629,1.528-1.528a10.648,10.648,0,0,0,2.969,1.243v2.179h5.132v-2.16a10.64,10.64,0,0,0,2.977-1.221l1.541,1.541,3.629-3.629-1.528-1.528a10.65,10.65,0,0,0,1.243-2.969Zm-12.569,3.644a6.247,6.247,0,1,1,6.247-6.247,6.247,6.247,0,0,1-6.247,6.247" transform="translate(-10540.995 3304.254)" fill="#5b50ec"/>
      <rect id="Rectángulo_462202" data-name="Rectángulo 462202" width="32.403" height="32.403" transform="translate(-8602.778 4184.189)" fill="#5b50ec"/>
      <rect id="Rectángulo_462203" data-name="Rectángulo 462203" width="27.603" height="27.603" transform="translate(-8600.378 4186.589)" fill="#5b50ec"/>
      <path id="Trazado_1015362" data-name="Trazado 1015362" d="M1805.4,2168.216a2.757,2.757,0,1,0-2.757,2.757,2.757,2.757,0,0,0,2.757-2.757" transform="translate(-10381.77 2023.241)" fill="#fff"/>
      <path id="Trazado_1015363" data-name="Trazado 1015363" d="M1674.339,2208.448v6.361h-27.6v-11.255l8.205-10.96,6.691,9.665,3.8-4.058Z" transform="translate(-10247.114 1999.384)" fill="#fff"/>
    </g>
    <g id="Grupo_1189360" data-name="Grupo 1189360" transform="translate(413.12 10937.443)" opacity="0.2">
      <rect id="Rectángulo_461984" data-name="Rectángulo 461984" width="0.69" height="7.639" transform="translate(0 31.918)"/>
      <rect id="Rectángulo_461985" data-name="Rectángulo 461985" width="0.69" height="14.036" transform="translate(3.841 25.52)"/>
      <rect id="Rectángulo_461986" data-name="Rectángulo 461986" width="0.69" height="21.126" transform="translate(7.682 18.43)"/>
      <rect id="Rectángulo_461987" data-name="Rectángulo 461987" width="0.69" height="28.523" transform="translate(11.523 11.034)"/>
      <rect id="Rectángulo_461988" data-name="Rectángulo 461988" width="0.69" height="34.631" transform="translate(15.364 4.926)"/>
      <rect id="Rectángulo_461989" data-name="Rectángulo 461989" width="0.69" height="39.557" transform="translate(19.205 0)"/>
      <rect id="Rectángulo_461990" data-name="Rectángulo 461990" width="0.691" height="39.557" transform="translate(23.046 0)"/>
      <rect id="Rectángulo_461991" data-name="Rectángulo 461991" width="0.69" height="34.631" transform="translate(26.887 4.926)"/>
      <rect id="Rectángulo_461992" data-name="Rectángulo 461992" width="0.69" height="28.523" transform="translate(30.727 11.034)"/>
      <rect id="Rectángulo_461993" data-name="Rectángulo 461993" width="0.69" height="21.126" transform="translate(34.568 18.43)"/>
      <rect id="Rectángulo_461994" data-name="Rectángulo 461994" width="0.69" height="14.036" transform="translate(38.41 25.52)"/>
      <rect id="Rectángulo_461995" data-name="Rectángulo 461995" width="0.69" height="7.639" transform="translate(42.251 31.918)"/>
    </g>
    <g id="Grupo_1189363" data-name="Grupo 1189363" transform="translate(197.452 10547.757)" opacity="0.2">
      <g id="Grupo_1189362" data-name="Grupo 1189362" transform="translate(0 0)" clip-path="url(#clip-path)">
        <path id="Trazado_1015029" data-name="Trazado 1015029" d="M30.647,61.293A30.647,30.647,0,1,1,61.293,30.647,30.681,30.681,0,0,1,30.647,61.293m0-60.6A29.956,29.956,0,1,0,60.6,30.647,29.99,29.99,0,0,0,30.647.69" transform="translate(0 0)"/>
        <path id="Trazado_1015030" data-name="Trazado 1015030" d="M32.856,58.574A25.719,25.719,0,1,1,58.575,32.856,25.748,25.748,0,0,1,32.856,58.574m0-50.747A25.028,25.028,0,1,0,57.884,32.856,25.057,25.057,0,0,0,32.856,7.827" transform="translate(-2.209 -2.209)"/>
        <path id="Trazado_1015031" data-name="Trazado 1015031" d="M35.065,55.856A20.791,20.791,0,1,1,55.856,35.065,20.814,20.814,0,0,1,35.065,55.856m0-40.891a20.1,20.1,0,1,0,20.1,20.1,20.123,20.123,0,0,0-20.1-20.1" transform="translate(-4.418 -4.418)"/>
        <path id="Trazado_1015032" data-name="Trazado 1015032" d="M37.273,53.136A15.863,15.863,0,1,1,53.137,37.273,15.881,15.881,0,0,1,37.273,53.136m0-31.035A15.172,15.172,0,1,0,52.447,37.273,15.19,15.19,0,0,0,37.273,22.1" transform="translate(-6.627 -6.626)"/>
        <path id="Trazado_1015033" data-name="Trazado 1015033" d="M39.482,50.417A10.935,10.935,0,1,1,50.418,39.482,10.948,10.948,0,0,1,39.482,50.417m0-21.18A10.245,10.245,0,1,0,49.728,39.482,10.256,10.256,0,0,0,39.482,29.237" transform="translate(-8.836 -8.835)"/>
      </g>
    </g>
    <g id="Grupo_1189367" data-name="Grupo 1189367" transform="translate(194 10826.713)" opacity="0.1">
      <path id="Trazado_1015075" data-name="Trazado 1015075" d="M1.52,59.408a1.521,1.521,0,1,0,1.52,1.52,1.521,1.521,0,0,0-1.52-1.52" transform="translate(0 -18.388)"/>
      <path id="Trazado_1015076" data-name="Trazado 1015076" d="M16.247,59.408a1.521,1.521,0,1,0,1.52,1.52,1.521,1.521,0,0,0-1.52-1.52" transform="translate(-4.558 -18.388)"/>
      <path id="Trazado_1015077" data-name="Trazado 1015077" d="M30.974,59.408a1.521,1.521,0,1,0,1.52,1.52,1.521,1.521,0,0,0-1.52-1.52" transform="translate(-9.116 -18.388)"/>
      <path id="Trazado_1015078" data-name="Trazado 1015078" d="M45.7,59.408a1.521,1.521,0,1,0,1.52,1.52,1.521,1.521,0,0,0-1.52-1.52" transform="translate(-13.675 -18.388)"/>
      <path id="Trazado_1015079" data-name="Trazado 1015079" d="M60.428,59.408a1.521,1.521,0,1,0,1.52,1.52,1.521,1.521,0,0,0-1.52-1.52" transform="translate(-18.233 -18.388)"/>
      <path id="Trazado_1015080" data-name="Trazado 1015080" d="M75.155,59.408a1.521,1.521,0,1,0,1.52,1.52,1.521,1.521,0,0,0-1.52-1.52" transform="translate(-22.791 -18.388)"/>
      <path id="Trazado_1015081" data-name="Trazado 1015081" d="M1.52,47.527a1.521,1.521,0,1,0,1.52,1.52,1.521,1.521,0,0,0-1.52-1.52" transform="translate(0 -14.71)"/>
      <path id="Trazado_1015082" data-name="Trazado 1015082" d="M16.247,47.527a1.521,1.521,0,1,0,1.52,1.52,1.521,1.521,0,0,0-1.52-1.52" transform="translate(-4.558 -14.71)"/>
      <path id="Trazado_1015083" data-name="Trazado 1015083" d="M30.974,47.527a1.521,1.521,0,1,0,1.52,1.52,1.521,1.521,0,0,0-1.52-1.52" transform="translate(-9.116 -14.71)"/>
      <path id="Trazado_1015084" data-name="Trazado 1015084" d="M45.7,47.527a1.521,1.521,0,1,0,1.52,1.52,1.521,1.521,0,0,0-1.52-1.52" transform="translate(-13.675 -14.71)"/>
      <path id="Trazado_1015085" data-name="Trazado 1015085" d="M60.428,47.527a1.521,1.521,0,1,0,1.52,1.52,1.521,1.521,0,0,0-1.52-1.52" transform="translate(-18.233 -14.71)"/>
      <path id="Trazado_1015086" data-name="Trazado 1015086" d="M75.155,47.527a1.521,1.521,0,1,0,1.52,1.52,1.521,1.521,0,0,0-1.52-1.52" transform="translate(-22.791 -14.71)"/>
      <path id="Trazado_1015087" data-name="Trazado 1015087" d="M1.52,35.645a1.521,1.521,0,1,0,1.52,1.52,1.521,1.521,0,0,0-1.52-1.52" transform="translate(0 -11.033)"/>
      <path id="Trazado_1015088" data-name="Trazado 1015088" d="M16.247,35.645a1.521,1.521,0,1,0,1.52,1.52,1.521,1.521,0,0,0-1.52-1.52" transform="translate(-4.558 -11.033)"/>
      <path id="Trazado_1015089" data-name="Trazado 1015089" d="M30.974,35.645a1.521,1.521,0,1,0,1.52,1.52,1.521,1.521,0,0,0-1.52-1.52" transform="translate(-9.116 -11.033)"/>
      <path id="Trazado_1015090" data-name="Trazado 1015090" d="M45.7,35.645a1.521,1.521,0,1,0,1.52,1.52,1.521,1.521,0,0,0-1.52-1.52" transform="translate(-13.675 -11.033)"/>
      <path id="Trazado_1015091" data-name="Trazado 1015091" d="M60.428,35.645a1.521,1.521,0,1,0,1.52,1.52,1.521,1.521,0,0,0-1.52-1.52" transform="translate(-18.233 -11.033)"/>
      <path id="Trazado_1015092" data-name="Trazado 1015092" d="M75.155,35.645a1.521,1.521,0,1,0,1.52,1.52,1.521,1.521,0,0,0-1.52-1.52" transform="translate(-22.791 -11.033)"/>
      <path id="Trazado_1015093" data-name="Trazado 1015093" d="M1.52,23.763a1.521,1.521,0,1,0,1.52,1.52,1.521,1.521,0,0,0-1.52-1.52" transform="translate(0 -7.355)"/>
      <path id="Trazado_1015094" data-name="Trazado 1015094" d="M16.247,23.763a1.521,1.521,0,1,0,1.52,1.52,1.521,1.521,0,0,0-1.52-1.52" transform="translate(-4.558 -7.355)"/>
      <path id="Trazado_1015095" data-name="Trazado 1015095" d="M30.974,23.763a1.521,1.521,0,1,0,1.52,1.52,1.521,1.521,0,0,0-1.52-1.52" transform="translate(-9.116 -7.355)"/>
      <path id="Trazado_1015096" data-name="Trazado 1015096" d="M45.7,23.763a1.521,1.521,0,1,0,1.52,1.52,1.521,1.521,0,0,0-1.52-1.52" transform="translate(-13.675 -7.355)"/>
      <path id="Trazado_1015097" data-name="Trazado 1015097" d="M60.428,23.763a1.521,1.521,0,1,0,1.52,1.52,1.521,1.521,0,0,0-1.52-1.52" transform="translate(-18.233 -7.355)"/>
      <path id="Trazado_1015098" data-name="Trazado 1015098" d="M75.155,23.763a1.521,1.521,0,1,0,1.52,1.52,1.521,1.521,0,0,0-1.52-1.52" transform="translate(-22.791 -7.355)"/>
      <path id="Trazado_1015099" data-name="Trazado 1015099" d="M1.52,11.882a1.521,1.521,0,1,0,1.52,1.52,1.521,1.521,0,0,0-1.52-1.52" transform="translate(0 -3.678)"/>
      <path id="Trazado_1015100" data-name="Trazado 1015100" d="M16.247,11.882a1.521,1.521,0,1,0,1.52,1.52,1.521,1.521,0,0,0-1.52-1.52" transform="translate(-4.558 -3.678)"/>
      <path id="Trazado_1015101" data-name="Trazado 1015101" d="M30.974,11.882a1.521,1.521,0,1,0,1.52,1.52,1.521,1.521,0,0,0-1.52-1.52" transform="translate(-9.116 -3.678)"/>
      <path id="Trazado_1015102" data-name="Trazado 1015102" d="M45.7,11.882a1.521,1.521,0,1,0,1.52,1.52,1.521,1.521,0,0,0-1.52-1.52" transform="translate(-13.675 -3.678)"/>
      <path id="Trazado_1015103" data-name="Trazado 1015103" d="M60.428,11.882a1.521,1.521,0,1,0,1.52,1.52,1.521,1.521,0,0,0-1.52-1.52" transform="translate(-18.233 -3.678)"/>
      <path id="Trazado_1015104" data-name="Trazado 1015104" d="M75.155,11.882a1.521,1.521,0,1,0,1.52,1.52,1.521,1.521,0,0,0-1.52-1.52" transform="translate(-22.791 -3.678)"/>
      <path id="Trazado_1015105" data-name="Trazado 1015105" d="M1.52,0a1.521,1.521,0,1,0,1.52,1.52A1.521,1.521,0,0,0,1.52,0" transform="translate(0)"/>
      <path id="Trazado_1015106" data-name="Trazado 1015106" d="M16.247,0a1.521,1.521,0,1,0,1.52,1.52A1.521,1.521,0,0,0,16.247,0" transform="translate(-4.558)"/>
      <path id="Trazado_1015107" data-name="Trazado 1015107" d="M30.974,0a1.521,1.521,0,1,0,1.52,1.52A1.521,1.521,0,0,0,30.974,0" transform="translate(-9.116)"/>
      <path id="Trazado_1015108" data-name="Trazado 1015108" d="M45.7,0a1.521,1.521,0,1,0,1.52,1.52A1.521,1.521,0,0,0,45.7,0" transform="translate(-13.675)"/>
      <path id="Trazado_1015109" data-name="Trazado 1015109" d="M60.428,0a1.521,1.521,0,1,0,1.52,1.52A1.521,1.521,0,0,0,60.428,0" transform="translate(-18.233)"/>
      <path id="Trazado_1015110" data-name="Trazado 1015110" d="M75.155,0a1.521,1.521,0,1,0,1.52,1.52A1.521,1.521,0,0,0,75.155,0" transform="translate(-22.791)"/>
    </g>
    <path id="Trazado_1015112" data-name="Trazado 1015112" d="M31.971,215.988h0A31.971,31.971,0,0,1,0,184.017V0H63.942V184.017a31.971,31.971,0,0,1-31.971,31.971" transform="translate(185 10556.941) rotate(-90)" fill="#665233" opacity="0.03"/>
  </g>
</svg>
