<svg xmlns="http://www.w3.org/2000/svg" width="160" height="160" viewBox="0 0 160 160">
  <g id="Grupo_1188886" data-name="Grupo 1188886" transform="translate(-383.746 -8399.654)">
    <circle id="Elipse_13609" data-name="Elipse 13609" cx="80" cy="80" r="80" transform="translate(383.746 8399.654)" fill="#fff"/>
    <g id="Grupo_1189913" data-name="Grupo 1189913" transform="translate(396.476 8436.654)">
      <g id="Grupo_1189912" data-name="Grupo 1189912" transform="translate(28.27 0)">
        <path id="Trazado_1016554" data-name="Trazado 1016554" d="M279.331,278.63a7.3,7.3,0,0,0-8.267-1.705v-6.9a2.136,2.136,0,0,0-2.134-2.134h-6.722a2.147,2.147,0,0,0-1.533.649,2.106,2.106,0,0,0-.6,1.543c0,.047,0,.094,0,.141a4.737,4.737,0,1,1-9.474,0c0-.047,0-.094,0-.141a2.107,2.107,0,0,0-.6-1.544,2.147,2.147,0,0,0-1.533-.649h-6.722a2.136,2.136,0,0,0-2.134,2.134v7.05a2.132,2.132,0,0,0,.694,1.572,2.156,2.156,0,0,0,1.647.551c.146-.013.3-.02.443-.02a4.737,4.737,0,0,1,.3,9.465,4.877,4.877,0,0,1-.758-.013,2.114,2.114,0,0,0-1.621.54,2.146,2.146,0,0,0-.7,1.586V297.2a2.136,2.136,0,0,0,2.134,2.134h6.9a7.3,7.3,0,0,0,6.677,10.23c.173,0,.347-.006.521-.018a7.3,7.3,0,0,0,6.173-10.212h6.9a2.136,2.136,0,0,0,2.134-2.134v-6.9a7.3,7.3,0,0,0,8.267-11.665Zm-.61,5.317a4.741,4.741,0,0,1-4.393,4.388h0a4.7,4.7,0,0,1-3.008-.818,1.794,1.794,0,0,0-2.816,1.471v7.782H260.72a1.794,1.794,0,0,0-1.471,2.816,4.737,4.737,0,1,1-7.808-.012,1.791,1.791,0,0,0-1.479-2.8H242.18V291.2c.224.007.449,0,.674-.01a7.3,7.3,0,0,0-.674-14.579v-6.168h5.867a7.3,7.3,0,0,0,14.589,0H268.5v7.782a1.791,1.791,0,0,0,2.8,1.479,4.737,4.737,0,0,1,7.413,4.238Z" transform="translate(-203.538 -222.154)" fill="#663b2d"/>
        <path id="Trazado_1016555" data-name="Trazado 1016555" d="M57.883,52.551l2.17-5.9A21.3,21.3,0,0,0,66.1,41.468a1.28,1.28,0,0,0-2-1.6,18.614,18.614,0,0,1-10.274,6.509V35.791h2.51a5.071,5.071,0,1,0-5.071-5.071v2.51h-3.5v-2.51a5.071,5.071,0,1,0-5.071,5.071H45.2V46.373A18.684,18.684,0,1,1,59.556,12.443a15.222,15.222,0,0,0,8.624,16.61,18.556,18.556,0,0,1-1.266,5.963,1.28,1.28,0,1,0,2.384.936,21.078,21.078,0,0,0,1.39-6,15.238,15.238,0,0,0,8.154-.137v7.223a2.319,2.319,0,0,0,2.316,2.316H94.622a2.319,2.319,0,0,0,2.316-2.316V32.949a1.28,1.28,0,1,0-2.561,0V36.79H81.4v-8a15.328,15.328,0,0,0,5.669-4.974h7.306v3.158a1.28,1.28,0,0,0,2.561,0v-3.4a2.319,2.319,0,0,0-2.316-2.316H88.49A15.218,15.218,0,1,0,60.269,9.879a21.239,21.239,0,1,0-21.3,36.753l2.176,5.919a2.991,2.991,0,0,0-2.179,2.874v5.01a2.99,2.99,0,0,0,2.561,2.953V66.51a2.136,2.136,0,0,0,2.134,2.134h.012v1.213A3.846,3.846,0,0,0,47.515,73.7h4a3.846,3.846,0,0,0,3.841-3.841V68.644h.012A2.136,2.136,0,0,0,57.5,66.51V63.387a2.99,2.99,0,0,0,2.561-2.953v-5.01a2.991,2.991,0,0,0-2.18-2.874ZM53.828,30.72a2.51,2.51,0,1,1,2.51,2.51h-2.51ZM74.52,2.561A12.658,12.658,0,1,1,61.862,15.219,12.672,12.672,0,0,1,74.52,2.561ZM53.828,49a21.126,21.126,0,0,0,2.937-.829L55.2,52.437H53.828ZM47.763,35.791h3.5v11c-.579.054-1.164.083-1.752.083s-1.175-.029-1.752-.083v-11Zm0,13.574c.578.047,1.162.073,1.752.073s1.173-.025,1.752-.072v3.071h-3.5ZM42.692,33.23a2.51,2.51,0,1,1,2.51-2.51v2.51ZM45.2,49v3.439H43.833l-1.571-4.275A21.06,21.06,0,0,0,45.2,49ZM52.8,69.857a1.282,1.282,0,0,1-1.28,1.28h-4a1.282,1.282,0,0,1-1.28-1.28V68.644H52.8ZM57.5,60.434a.427.427,0,0,1-.427.427H53.149a1.28,1.28,0,0,0,0,2.561h1.793v2.662H44.089V63.421h3.085a1.28,1.28,0,1,0,0-2.561H41.955a.427.427,0,0,1-.427-.427v-5.01A.427.427,0,0,1,41.955,55h15.12a.427.427,0,0,1,.427.427Z" transform="translate(-28.27 0)" fill="#663b2d"/>
        <path id="Trazado_1016556" data-name="Trazado 1016556" d="M256.366,70.444a1.28,1.28,0,0,0,.963.455h.016a1.28,1.28,0,0,0,.958-.431l8.388-9.463a1.28,1.28,0,0,0-1.916-1.7l-7.405,8.354L252.6,61.992a1.28,1.28,0,0,0-1.959,1.649Z" transform="translate(-212.426 -48.825)" fill="#663b2d"/>
      </g>
    </g>
  </g>
</svg>
