<svg xmlns="http://www.w3.org/2000/svg" width="150" height="150" viewBox="0 0 150 150">
  <g id="Grupo_1189048" data-name="Grupo 1189048" transform="translate(-383.746 -8400)">
    <circle id="Elipse_13609" data-name="Elipse 13609" cx="75" cy="75" r="75" transform="translate(383.746 8400)" fill="#ff9471"/>
    <g id="Grupo_1189046" data-name="Grupo 1189046" transform="translate(411.264 8428.235)">
      <path id="Trazado_1012863" data-name="Trazado 1012863" d="M45.146,31.054a1.572,1.572,0,0,1-.845-.247,11.16,11.16,0,0,1-4.991-11.53,1.574,1.574,0,0,1,3.093.584,8.028,8.028,0,0,0,3.591,8.293,1.573,1.573,0,0,1-.848,2.9Z" transform="translate(19.561 6.736)" fill="#663b2d"/>
      <path id="Trazado_1012864" data-name="Trazado 1012864" d="M21.893,35.4a11.1,11.1,0,0,1-7.8-3.3,11.1,11.1,0,0,1-2.549-12.361,10.967,10.967,0,0,1,10.274-6.651l.176,0a10.974,10.974,0,0,1,10.26,6.943,1.574,1.574,0,0,1-2.925,1.161,7.908,7.908,0,0,0-7.381-4.958A7.867,7.867,0,0,0,16.3,29.852a7.828,7.828,0,0,0,8.813,1.688A1.573,1.573,0,1,1,26.4,34.407,10.93,10.93,0,0,1,21.893,35.4Z" transform="translate(3.24 3.919)" fill="#663b2d"/>
      <path id="Trazado_1012865" data-name="Trazado 1012865" d="M21.627,31.054a1.573,1.573,0,0,1-.846-2.9,8.029,8.029,0,0,0,3.591-8.293,1.573,1.573,0,1,1,3.092-.584,11.16,11.16,0,0,1-4.991,11.53,1.572,1.572,0,0,1-.845.247Z" transform="translate(8.631 6.736)" fill="#663b2d"/>
      <path id="Trazado_1012866" data-name="Trazado 1012866" d="M50,35.373a10.968,10.968,0,0,1-4.478-.965A1.572,1.572,0,1,1,46.8,31.535a7.979,7.979,0,1,0-4.214-10.347,1.573,1.573,0,1,1-2.923-1.161A11.17,11.17,0,1,1,57.71,32.21,11.185,11.185,0,0,1,50,35.373Z" transform="translate(19.81 3.921)" fill="#663b2d"/>
      <path id="Trazado_1012867" data-name="Trazado 1012867" d="M37.513,36.924a15.027,15.027,0,0,1-2.785-.261,15.556,15.556,0,0,1-12.361-17,15.342,15.342,0,1,1,30.095,5.7A15.565,15.565,0,0,1,37.513,36.924ZM37.622,9.4a12.376,12.376,0,0,0-12.131,10.66,12.367,12.367,0,0,0,9.823,13.514,11.861,11.861,0,0,0,2.2.206A12.168,12.168,0,0,0,49.783,21.59,12.357,12.357,0,0,0,38.361,9.421c-.249-.016-.494-.024-.74-.024Z" transform="translate(9.893 0)" fill="#663b2d"/>
      <path id="Trazado_1012868" data-name="Trazado 1012868" d="M35.727,57.2A10.227,10.227,0,1,1,45.954,46.976,10.365,10.365,0,0,1,35.727,57.2Zm0-17.308a7.08,7.08,0,1,0,7.08,7.08A7.176,7.176,0,0,0,35.727,39.9Z" transform="translate(11.755 17.489)" fill="#663b2d"/>
      <path id="Trazado_1012869" data-name="Trazado 1012869" d="M35.807,32.273a1.552,1.552,0,0,1-.3-.03l-.636-.124a1.574,1.574,0,1,1,.606-3.089l.636.124a1.574,1.574,0,0,1-.3,3.118Z" transform="translate(16.397 13.046)" fill="#663b2d"/>
      <path id="Trazado_1012870" data-name="Trazado 1012870" d="M35.573,37.115A1.573,1.573,0,0,1,34,35.542V30.653a1.573,1.573,0,0,1,3.147,0V35.54A1.574,1.574,0,0,1,35.573,37.115Z" transform="translate(16.629 13.092)" fill="#663b2d"/>
      <path id="Trazado_1012871" data-name="Trazado 1012871" d="M38.71,36.633a1.564,1.564,0,0,1-.747-.189,14.839,14.839,0,0,0-2.838-1.177,1.573,1.573,0,1,1,.9-3.015,18.23,18.23,0,0,1,3.436,1.422,1.574,1.574,0,0,1-.749,2.958Z" transform="translate(16.628 14.873)" fill="#663b2d"/>
      <path id="Trazado_1012872" data-name="Trazado 1012872" d="M37.568,37.253a1.573,1.573,0,0,1-1.112-2.686l3-3a1.573,1.573,0,1,1,2.225,2.225l-3,3a1.572,1.572,0,0,1-1.112.461Z" transform="translate(17.772 14.254)" fill="#663b2d"/>
      <path id="Trazado_1012873" data-name="Trazado 1012873" d="M39.473,34.42a1.573,1.573,0,0,1-1.112-2.686l.458-.458A1.573,1.573,0,0,1,41.043,33.5l-.458.458A1.563,1.563,0,0,1,39.473,34.42Z" transform="translate(18.865 14.086)" fill="#663b2d"/>
      <path id="Trazado_1012874" data-name="Trazado 1012874" d="M40.3,34.325a1.581,1.581,0,0,1-.88-.269l-.537-.362a1.574,1.574,0,0,1,1.761-2.61l.537.362a1.575,1.575,0,0,1-.881,2.879Z" transform="translate(19.032 14.087)" fill="#663b2d"/>
      <path id="Trazado_1012875" data-name="Trazado 1012875" d="M45.884,39.968a1.572,1.572,0,0,1-1.308-.7,19.544,19.544,0,0,0-5.348-5.346,1.574,1.574,0,0,1,1.756-2.612,22.72,22.72,0,0,1,6.206,6.2,1.575,1.575,0,0,1-.428,2.184,1.593,1.593,0,0,1-.878.266Z" transform="translate(19.228 14.219)" fill="#663b2d"/>
      <path id="Trazado_1012876" data-name="Trazado 1012876" d="M44.139,38.4a1.572,1.572,0,0,1-1.308-.7l-.36-.538a1.574,1.574,0,1,1,2.612-1.756l.36.538a1.573,1.573,0,0,1-1.3,2.451Z" transform="translate(21.333 16.324)" fill="#663b2d"/>
      <path id="Trazado_1012877" data-name="Trazado 1012877" d="M41.81,41.661A1.573,1.573,0,0,1,40.7,38.975l3.457-3.455a1.573,1.573,0,0,1,2.225,2.225L42.922,41.2A1.569,1.569,0,0,1,41.81,41.661Z" transform="translate(20.205 16.52)" fill="#663b2d"/>
      <path id="Trazado_1012878" data-name="Trazado 1012878" d="M43.109,43.539A1.572,1.572,0,0,1,41.6,42.414a15.056,15.056,0,0,0-1.175-2.838,1.573,1.573,0,0,1,2.768-1.5,18.1,18.1,0,0,1,1.424,3.438,1.572,1.572,0,0,1-1.059,1.956A1.606,1.606,0,0,1,43.109,43.539Z" transform="translate(20.205 17.779)" fill="#663b2d"/>
      <path id="Trazado_1012879" data-name="Trazado 1012879" d="M46.876,42.4h-4.24a1.573,1.573,0,0,1,0-3.147h4.24a1.573,1.573,0,0,1,0,3.147Z" transform="translate(20.678 18.923)" fill="#663b2d"/>
      <path id="Trazado_1012880" data-name="Trazado 1012880" d="M45.979,42.4H45.33a1.573,1.573,0,0,1,0-3.147h.648a1.573,1.573,0,0,1,0,3.147Z" transform="translate(22.224 18.923)" fill="#663b2d"/>
      <path id="Trazado_1012881" data-name="Trazado 1012881" d="M45.865,43.032a1.572,1.572,0,0,1-1.542-1.271l-.124-.636a1.574,1.574,0,0,1,3.089-.606l.124.636A1.576,1.576,0,0,1,46.169,43a1.54,1.54,0,0,1-.3.03Z" transform="translate(22.46 18.922)" fill="#663b2d"/>
      <path id="Trazado_1012882" data-name="Trazado 1012882" d="M45.823,50.97a1.551,1.551,0,0,1-.3-.03,1.574,1.574,0,0,1-1.241-1.847,19.544,19.544,0,0,0,0-7.563,1.574,1.574,0,1,1,3.089-.606,22.737,22.737,0,0,1,0,8.773A1.575,1.575,0,0,1,45.823,50.97Z" transform="translate(22.505 19.154)" fill="#663b2d"/>
      <path id="Trazado_1012883" data-name="Trazado 1012883" d="M45.744,48.628a1.552,1.552,0,0,1-.3-.03A1.575,1.575,0,0,1,44.2,46.751l.124-.636a1.574,1.574,0,0,1,3.089.606l-.124.636a1.572,1.572,0,0,1-1.542,1.271Z" transform="translate(22.46 22.131)" fill="#663b2d"/>
      <path id="Trazado_1012884" data-name="Trazado 1012884" d="M47.524,48.4H42.635a1.573,1.573,0,0,1,0-3.147h4.889a1.573,1.573,0,0,1,0,3.147Z" transform="translate(20.678 22.363)" fill="#663b2d"/>
      <path id="Trazado_1012885" data-name="Trazado 1012885" d="M41.808,51.533a1.572,1.572,0,0,1-1.383-2.321A15.013,15.013,0,0,0,41.6,46.374a1.573,1.573,0,0,1,3.016.9,18.139,18.139,0,0,1-1.424,3.438,1.567,1.567,0,0,1-1.385.824Z" transform="translate(20.204 22.363)" fill="#663b2d"/>
      <path id="Trazado_1012886" data-name="Trazado 1012886" d="M44.808,53.387a1.569,1.569,0,0,1-1.112-.461l-3-3A1.573,1.573,0,0,1,42.922,47.7l3,3a1.573,1.573,0,0,1-1.112,2.686Z" transform="translate(20.205 23.506)" fill="#663b2d"/>
      <path id="Trazado_1012887" data-name="Trazado 1012887" d="M44.173,52.753a1.569,1.569,0,0,1-1.112-.461l-.458-.458a1.573,1.573,0,0,1,2.225-2.225l.458.458a1.573,1.573,0,0,1-1.112,2.686Z" transform="translate(21.297 24.599)" fill="#663b2d"/>
      <path id="Trazado_1012888" data-name="Trazado 1012888" d="M43.776,53.124a1.573,1.573,0,0,1-1.3-2.451l.36-.538a1.574,1.574,0,1,1,2.612,1.756l-.36.538a1.572,1.572,0,0,1-1.308.7Z" transform="translate(21.333 24.765)" fill="#663b2d"/>
      <path id="Trazado_1012889" data-name="Trazado 1012889" d="M40.107,58.7a1.573,1.573,0,0,1-.88-2.879,19.544,19.544,0,0,0,5.348-5.346,1.574,1.574,0,1,1,2.612,1.756,22.7,22.7,0,0,1-6.206,6.2,1.571,1.571,0,0,1-.875.266Z" transform="translate(19.228 24.962)" fill="#663b2d"/>
      <path id="Trazado_1012890" data-name="Trazado 1012890" d="M39.765,56.962a1.574,1.574,0,0,1-.883-2.878l.537-.362a1.574,1.574,0,0,1,1.761,2.61l-.537.362A1.576,1.576,0,0,1,39.765,56.962Z" transform="translate(19.031 27.068)" fill="#663b2d"/>
      <path id="Trazado_1012891" data-name="Trazado 1012891" d="M41.023,58.09a1.569,1.569,0,0,1-1.112-.461l-3.457-3.457a1.573,1.573,0,0,1,2.225-2.225L42.136,55.4a1.573,1.573,0,0,1-1.112,2.686Z" transform="translate(17.772 25.939)" fill="#663b2d"/>
      <path id="Trazado_1012892" data-name="Trazado 1012892" d="M35.573,55.933a1.573,1.573,0,0,1-.448-3.081,15.087,15.087,0,0,0,2.838-1.177,1.573,1.573,0,0,1,1.5,2.768,18.126,18.126,0,0,1-3.436,1.422,1.554,1.554,0,0,1-.45.068Z" transform="translate(16.629 25.939)" fill="#663b2d"/>
      <path id="Trazado_1012893" data-name="Trazado 1012893" d="M35.573,59.7A1.573,1.573,0,0,1,34,58.126v-4.24a1.573,1.573,0,0,1,3.147,0v4.24A1.573,1.573,0,0,1,35.573,59.7Z" transform="translate(16.629 26.413)" fill="#663b2d"/>
      <path id="Trazado_1012894" data-name="Trazado 1012894" d="M35.573,58.8A1.573,1.573,0,0,1,34,57.227V56.58a1.573,1.573,0,1,1,3.147,0v.647A1.573,1.573,0,0,1,35.573,58.8Z" transform="translate(16.629 27.958)" fill="#663b2d"/>
      <path id="Trazado_1012895" data-name="Trazado 1012895" d="M35.168,58.69a1.574,1.574,0,0,1-.3-3.118l.636-.124a1.574,1.574,0,0,1,.606,3.089l-.636.124a1.556,1.556,0,0,1-.305.03Z" transform="translate(16.397 28.194)" fill="#663b2d"/>
      <path id="Trazado_1012896" data-name="Trazado 1012896" d="M34.062,59.042a22.839,22.839,0,0,1-4.388-.426,1.574,1.574,0,0,1,.606-3.089,19.552,19.552,0,0,0,7.565,0,1.574,1.574,0,0,1,.606,3.089,22.977,22.977,0,0,1-4.388.426Z" transform="translate(13.42 28.239)" fill="#663b2d"/>
      <path id="Trazado_1012897" data-name="Trazado 1012897" d="M30.211,58.69a1.552,1.552,0,0,1-.3-.03l-.636-.124a1.574,1.574,0,0,1,.606-3.089l.636.124a1.574,1.574,0,0,1-.3,3.118Z" transform="translate(13.189 28.194)" fill="#663b2d"/>
      <path id="Trazado_1012898" data-name="Trazado 1012898" d="M29.573,60.346A1.573,1.573,0,0,1,28,58.772V53.885a1.573,1.573,0,0,1,3.147,0v4.887A1.573,1.573,0,0,1,29.573,60.346Z" transform="translate(13.188 26.413)" fill="#663b2d"/>
      <path id="Trazado_1012899" data-name="Trazado 1012899" d="M30.717,55.933a1.59,1.59,0,0,1-.45-.066,18.211,18.211,0,0,1-3.436-1.422,1.573,1.573,0,1,1,1.5-2.768,14.923,14.923,0,0,0,2.838,1.177,1.572,1.572,0,0,1-.448,3.079Z" transform="translate(12.045 25.939)" fill="#663b2d"/>
      <path id="Trazado_1012900" data-name="Trazado 1012900" d="M25.675,57.632a1.573,1.573,0,0,1-1.112-2.686l3-3a1.573,1.573,0,0,1,2.225,2.225l-3,3a1.574,1.574,0,0,1-1.112.461Z" transform="translate(10.953 25.939)" fill="#663b2d"/>
      <path id="Trazado_1012901" data-name="Trazado 1012901" d="M25.384,57a1.573,1.573,0,0,1-1.112-2.686l.458-.458a1.573,1.573,0,1,1,2.225,2.225l-.458.458A1.574,1.574,0,0,1,25.384,57Z" transform="translate(10.786 27.032)" fill="#663b2d"/>
      <path id="Trazado_1012902" data-name="Trazado 1012902" d="M25.578,56.962a1.572,1.572,0,0,1-.878-.269l-.538-.362a1.574,1.574,0,0,1,1.759-2.61l.538.362a1.575,1.575,0,0,1-.881,2.879Z" transform="translate(10.59 27.067)" fill="#663b2d"/>
      <path id="Trazado_1012903" data-name="Trazado 1012903" d="M27.145,58.7a1.566,1.566,0,0,1-.876-.267,22.736,22.736,0,0,1-6.2-6.2,1.574,1.574,0,0,1,2.612-1.756,19.544,19.544,0,0,0,5.348,5.346,1.575,1.575,0,0,1-.88,2.881Z" transform="translate(8.485 24.962)" fill="#663b2d"/>
      <path id="Trazado_1012904" data-name="Trazado 1012904" d="M21.5,53.124a1.572,1.572,0,0,1-1.308-.7l-.36-.538a1.574,1.574,0,0,1,2.612-1.756l.36.538a1.574,1.574,0,0,1-.428,2.184,1.553,1.553,0,0,1-.876.267Z" transform="translate(8.353 24.765)" fill="#663b2d"/>
      <path id="Trazado_1012905" data-name="Trazado 1012905" d="M21.141,53.845a1.573,1.573,0,0,1-1.112-2.686L23.483,47.7a1.573,1.573,0,0,1,2.225,2.225l-3.455,3.455a1.563,1.563,0,0,1-1.112.461Z" transform="translate(8.353 23.506)" fill="#663b2d"/>
      <path id="Trazado_1012906" data-name="Trazado 1012906" d="M23.812,51.533a1.574,1.574,0,0,1-1.386-.824A18.2,18.2,0,0,1,21,47.271a1.573,1.573,0,0,1,3.016-.9,15.081,15.081,0,0,0,1.175,2.838,1.573,1.573,0,0,1-1.383,2.321Z" transform="translate(9.138 22.363)" fill="#663b2d"/>
      <path id="Trazado_1012907" data-name="Trazado 1012907" d="M24.057,48.4h-4.24a1.573,1.573,0,1,1,0-3.147h4.24a1.573,1.573,0,1,1,0,3.147Z" transform="translate(7.594 22.363)" fill="#663b2d"/>
      <path id="Trazado_1012908" data-name="Trazado 1012908" d="M20.053,48.4H19.4a1.573,1.573,0,0,1,0-3.147h.648a1.573,1.573,0,0,1,0,3.147Z" transform="translate(7.357 22.363)" fill="#663b2d"/>
      <path id="Trazado_1012909" data-name="Trazado 1012909" d="M19.448,48.628a1.572,1.572,0,0,1-1.542-1.271l-.124-.636a1.574,1.574,0,0,1,3.089-.606l.124.636A1.576,1.576,0,0,1,19.752,48.6,1.54,1.54,0,0,1,19.448,48.628Z" transform="translate(7.312 22.131)" fill="#663b2d"/>
      <path id="Trazado_1012910" data-name="Trazado 1012910" d="M19.469,50.969A1.572,1.572,0,0,1,17.927,49.7a22.737,22.737,0,0,1,0-8.773,1.574,1.574,0,1,1,3.089.606,19.544,19.544,0,0,0,0,7.563,1.575,1.575,0,0,1-1.241,1.847A1.708,1.708,0,0,1,19.469,50.969Z" transform="translate(7.167 19.154)" fill="#663b2d"/>
      <path id="Trazado_1012911" data-name="Trazado 1012911" d="M19.327,43.032a1.552,1.552,0,0,1-.3-.03,1.575,1.575,0,0,1-1.243-1.847l.124-.636a1.574,1.574,0,0,1,3.089.606l-.124.636a1.572,1.572,0,0,1-1.542,1.271Z" transform="translate(7.312 18.922)" fill="#663b2d"/>
      <path id="Trazado_1012912" data-name="Trazado 1012912" d="M24.292,42.4H19.405a1.573,1.573,0,0,1,0-3.147h4.887a1.573,1.573,0,0,1,0,3.147Z" transform="translate(7.358 18.923)" fill="#663b2d"/>
      <path id="Trazado_1012913" data-name="Trazado 1012913" d="M22.512,43.54a1.59,1.59,0,0,1-.45-.066A1.572,1.572,0,0,1,21,41.518a18.244,18.244,0,0,1,1.422-3.438,1.574,1.574,0,0,1,2.769,1.5,14.935,14.935,0,0,0-1.175,2.838A1.572,1.572,0,0,1,22.512,43.54Z" transform="translate(9.138 17.779)" fill="#663b2d"/>
      <path id="Trazado_1012914" data-name="Trazado 1012914" d="M24.429,41.494a1.569,1.569,0,0,1-1.112-.461l-3-3a1.573,1.573,0,0,1,2.225-2.225l3,3a1.573,1.573,0,0,1-1.112,2.686Z" transform="translate(8.52 16.687)" fill="#663b2d"/>
      <path id="Trazado_1012915" data-name="Trazado 1012915" d="M21.6,38.664a1.569,1.569,0,0,1-1.112-.461l-.458-.458a1.573,1.573,0,0,1,2.225-2.225l.458.458A1.573,1.573,0,0,1,21.6,38.664Z" transform="translate(8.353 16.52)" fill="#663b2d"/>
      <path id="Trazado_1012916" data-name="Trazado 1012916" d="M21.139,38.4a1.573,1.573,0,0,1-1.3-2.451l.36-.538a1.574,1.574,0,1,1,2.612,1.756l-.36.538a1.576,1.576,0,0,1-1.307.7Z" transform="translate(8.353 16.324)" fill="#663b2d"/>
      <path id="Trazado_1012917" data-name="Trazado 1012917" d="M21.368,39.969a1.573,1.573,0,0,1-1.3-2.451,22.715,22.715,0,0,1,6.2-6.2,1.574,1.574,0,0,1,1.756,2.612,19.544,19.544,0,0,0-5.348,5.346,1.568,1.568,0,0,1-1.308.7Z" transform="translate(8.484 14.219)" fill="#663b2d"/>
      <path id="Trazado_1012918" data-name="Trazado 1012918" d="M25.043,34.325a1.573,1.573,0,0,1-.881-2.878l.538-.362a1.574,1.574,0,0,1,1.759,2.61l-.538.362a1.587,1.587,0,0,1-.878.267Z" transform="translate(10.59 14.087)" fill="#663b2d"/>
      <path id="Trazado_1012919" data-name="Trazado 1012919" d="M28.839,37.42a1.569,1.569,0,0,1-1.112-.461L24.27,33.5a1.573,1.573,0,1,1,2.225-2.225l3.457,3.457a1.573,1.573,0,0,1-1.112,2.686Z" transform="translate(10.785 14.087)" fill="#663b2d"/>
      <path id="Trazado_1012920" data-name="Trazado 1012920" d="M27.581,36.633a1.573,1.573,0,0,1-.751-2.956,18.066,18.066,0,0,1,3.436-1.422,1.573,1.573,0,1,1,.9,3.015,15.13,15.13,0,0,0-2.838,1.177,1.584,1.584,0,0,1-.746.187Z" transform="translate(12.045 14.874)" fill="#663b2d"/>
      <path id="Trazado_1012921" data-name="Trazado 1012921" d="M29.573,36.879A1.573,1.573,0,0,1,28,35.306v-4.24a1.573,1.573,0,0,1,3.147,0v4.24A1.574,1.574,0,0,1,29.573,36.879Z" transform="translate(13.188 13.328)" fill="#663b2d"/>
      <path id="Trazado_1012922" data-name="Trazado 1012922" d="M29.573,32.873A1.573,1.573,0,0,1,28,31.3v-.647a1.573,1.573,0,0,1,3.147,0V31.3A1.573,1.573,0,0,1,29.573,32.873Z" transform="translate(13.188 13.092)" fill="#663b2d"/>
      <path id="Trazado_1012923" data-name="Trazado 1012923" d="M29.572,32.273a1.574,1.574,0,0,1-.3-3.119l.636-.124a1.574,1.574,0,1,1,.606,3.089l-.636.124a1.567,1.567,0,0,1-.305.03Z" transform="translate(13.189 13.046)" fill="#663b2d"/>
      <path id="Trazado_1012924" data-name="Trazado 1012924" d="M29.976,32.294a1.574,1.574,0,0,1-.3-3.119,22.683,22.683,0,0,1,8.775,0,1.574,1.574,0,0,1-.606,3.089,19.552,19.552,0,0,0-7.565,0,1.552,1.552,0,0,1-.3.03Z" transform="translate(13.42 12.901)" fill="#663b2d"/>
      <path id="Trazado_1012925" data-name="Trazado 1012925" d="M45.967,44a1.573,1.573,0,0,1-.481-3.071q1.211-.389,2.406-.823a1.573,1.573,0,1,1,1.076,2.956q-1.251.456-2.517.864a1.676,1.676,0,0,1-.483.074Z" transform="translate(22.588 19.361)" fill="#663b2d"/>
      <path id="Trazado_1012926" data-name="Trazado 1012926" d="M20.078,44a1.6,1.6,0,0,1-.481-.076q-1.267-.408-2.519-.864a1.573,1.573,0,1,1,1.076-2.956q1.2.434,2.406.823A1.574,1.574,0,0,1,20.078,44Z" transform="translate(6.331 19.361)" fill="#663b2d"/>
      <path id="Trazado_1012927" data-name="Trazado 1012927" d="M15.773,39.713A1.573,1.573,0,0,1,14.2,38.14a14.727,14.727,0,0,1,6.814-12.455,1.573,1.573,0,0,1,1.7,2.65,11.6,11.6,0,0,0-5.365,9.805A1.573,1.573,0,0,1,15.773,39.713Z" transform="translate(5.275 11.001)" fill="#663b2d"/>
      <path id="Trazado_1012928" data-name="Trazado 1012928" d="M51.592,39.713a1.573,1.573,0,0,1-1.573-1.573,11.6,11.6,0,0,0-5.364-9.805,1.573,1.573,0,0,1,1.7-2.65A14.729,14.729,0,0,1,53.166,38.14a1.573,1.573,0,0,1-1.573,1.573Z" transform="translate(22.323 11.001)" fill="#663b2d"/>
      <path id="Trazado_1012929" data-name="Trazado 1012929" d="M19.645,30.451a1.573,1.573,0,0,1-.85-2.9,39.183,39.183,0,0,1,12.99-5.34,1.574,1.574,0,1,1,.658,3.078A36.083,36.083,0,0,0,20.491,30.2,1.566,1.566,0,0,1,19.645,30.451Z" transform="translate(7.494 9.132)" fill="#663b2d"/>
      <path id="Trazado_1012930" data-name="Trazado 1012930" d="M50.047,30.451A1.562,1.562,0,0,1,49.2,30.2a36.083,36.083,0,0,0-11.952-4.912,1.574,1.574,0,1,1,.658-3.078,39.183,39.183,0,0,1,12.99,5.34,1.573,1.573,0,0,1-.85,2.9Z" transform="translate(17.778 9.132)" fill="#663b2d"/>
      <path id="Trazado_1012931" data-name="Trazado 1012931" d="M60.127,37.372A1.573,1.573,0,0,1,58.554,35.8a7.643,7.643,0,0,0-3.539-6.465,1.573,1.573,0,1,1,1.7-2.65A10.774,10.774,0,0,1,61.7,35.8,1.574,1.574,0,0,1,60.127,37.372Z" transform="translate(28.263 11.574)" fill="#663b2d"/>
      <path id="Trazado_1012932" data-name="Trazado 1012932" d="M59.044,30.891a1.562,1.562,0,0,1-.846-.249,24.807,24.807,0,0,0-8.21-3.375,1.574,1.574,0,1,1,.658-3.078,27.851,27.851,0,0,1,9.249,3.8,1.575,1.575,0,0,1-.85,2.9Z" transform="translate(25.083 10.266)" fill="#663b2d"/>
      <path id="Trazado_1012933" data-name="Trazado 1012933" d="M6.573,37.373A1.573,1.573,0,0,1,5,35.8a10.782,10.782,0,0,1,4.986-9.115,1.573,1.573,0,0,1,1.7,2.65A7.645,7.645,0,0,0,8.147,35.8a1.574,1.574,0,0,1-1.573,1.573Z" transform="translate(0 11.574)" fill="#663b2d"/>
      <path id="Trazado_1012934" data-name="Trazado 1012934" d="M9.283,30.89a1.573,1.573,0,0,1-.85-2.9,27.873,27.873,0,0,1,9.25-3.8,1.574,1.574,0,1,1,.658,3.078,24.776,24.776,0,0,0-8.212,3.375,1.57,1.57,0,0,1-.846.247Z" transform="translate(1.553 10.266)" fill="#663b2d"/>
      <path id="Trazado_1012935" data-name="Trazado 1012935" d="M18.672,44.668a1.573,1.573,0,0,1-.538-.1A6,6,0,0,1,14.2,38.955a1.573,1.573,0,0,1,3.147,0,2.838,2.838,0,0,0,1.864,2.661,1.574,1.574,0,0,1-.538,3.052Z" transform="translate(5.275 17.852)" fill="#663b2d"/>
      <path id="Trazado_1012936" data-name="Trazado 1012936" d="M15.773,43.323A1.573,1.573,0,0,1,14.2,41.75V34.082a1.573,1.573,0,0,1,3.147,0V41.75A1.573,1.573,0,0,1,15.773,43.323Z" transform="translate(5.275 15.058)" fill="#663b2d"/>
      <path id="Trazado_1012937" data-name="Trazado 1012937" d="M47.531,44.668a1.573,1.573,0,0,1-.538-3.051,2.843,2.843,0,0,0,1.864-2.661,1.573,1.573,0,1,1,3.147,0,5.994,5.994,0,0,1-3.935,5.617,1.609,1.609,0,0,1-.538.094Z" transform="translate(23.485 17.853)" fill="#663b2d"/>
      <path id="Trazado_1012938" data-name="Trazado 1012938" d="M49.373,43.323A1.573,1.573,0,0,1,47.8,41.75V34.082a1.573,1.573,0,1,1,3.147,0V41.75A1.573,1.573,0,0,1,49.373,43.323Z" transform="translate(24.542 15.058)" fill="#663b2d"/>
      <path id="Trazado_1012939" data-name="Trazado 1012939" d="M58.573,39.9A1.573,1.573,0,0,1,57,38.326V32.959a1.573,1.573,0,1,1,3.147,0v5.367A1.573,1.573,0,0,1,58.573,39.9Z" transform="translate(29.817 14.414)" fill="#663b2d"/>
      <path id="Trazado_1012940" data-name="Trazado 1012940" d="M57.283,40.844a1.573,1.573,0,0,1-.538-3.051,1.52,1.52,0,0,0,.994-1.422,1.573,1.573,0,0,1,3.147,0,4.676,4.676,0,0,1-3.065,4.377,1.573,1.573,0,0,1-.538.1Z" transform="translate(29.078 16.37)" fill="#663b2d"/>
      <path id="Trazado_1012941" data-name="Trazado 1012941" d="M49.183,42.544a1.573,1.573,0,0,1-.121-3.142,46.68,46.68,0,0,0,12.328-2.667,1.573,1.573,0,1,1,1.076,2.956,49.82,49.82,0,0,1-13.158,2.849c-.042,0-.083,0-.124,0Z" transform="translate(24.434 17.427)" fill="#663b2d"/>
      <path id="Trazado_1012942" data-name="Trazado 1012942" d="M6.573,39.9A1.573,1.573,0,0,1,5,38.326V32.959a1.573,1.573,0,1,1,3.147,0v5.367A1.573,1.573,0,0,1,6.573,39.9Z" transform="translate(0 14.414)" fill="#663b2d"/>
      <path id="Trazado_1012943" data-name="Trazado 1012943" d="M8.6,40.844a1.573,1.573,0,0,1-.538-.1A4.674,4.674,0,0,1,5,36.37a1.573,1.573,0,0,1,3.147,0,1.516,1.516,0,0,0,.994,1.421A1.574,1.574,0,0,1,8.6,40.844Z" transform="translate(0 16.37)" fill="#663b2d"/>
      <path id="Trazado_1012944" data-name="Trazado 1012944" d="M20.608,42.545c-.041,0-.082,0-.124,0A49.758,49.758,0,0,1,7.326,39.691,1.573,1.573,0,1,1,8.4,36.735,46.68,46.68,0,0,0,20.73,39.4a1.574,1.574,0,0,1-.121,3.144Z" transform="translate(0.739 17.426)" fill="#663b2d"/>
    </g>
  </g>
</svg>
